<svg width="795" height="402" viewBox="0 0 795 402" fill="none" xmlns="http://www.w3.org/2000/svg">
<line x1="415" y1="347" x2="415" y2="42" stroke="#6B5EDC" stroke-width="4"/>
<ellipse cx="416.5" cy="21" rx="17.5" ry="21" fill="#6B5EDC"/>
<ellipse cx="418.5" cy="354" rx="17.5" ry="21" fill="#C4C4C4"/>
<path d="M435 354C435 365.598 427.165 375 417.5 375C407.835 375 400 365.598 400 354C400 342.402 407.835 333 417.5 333C427.165 333 435 342.402 435 354Z" fill="#6B5EDC"/>
<path d="M525.277 24.9492H513.832V37H508.891V8.5625H526.957V12.5469H513.832V21.0039H525.277V24.9492ZM540.98 20.2031C540.355 20.099 539.711 20.0469 539.047 20.0469C536.872 20.0469 535.408 20.8802 534.652 22.5469V37H529.906V15.8672H534.438L534.555 18.2305C535.701 16.3945 537.289 15.4766 539.32 15.4766C539.997 15.4766 540.557 15.5677 541 15.75L540.98 20.2031ZM552.895 37.3906C549.887 37.3906 547.445 36.4466 545.57 34.5586C543.708 32.6576 542.777 30.1315 542.777 26.9805V26.3945C542.777 24.2852 543.181 22.4036 543.988 20.75C544.809 19.0833 545.954 17.7878 547.426 16.8633C548.897 15.9388 550.538 15.4766 552.348 15.4766C555.225 15.4766 557.445 16.3945 559.008 18.2305C560.583 20.0664 561.371 22.6641 561.371 26.0234V27.9375H547.562C547.706 29.6823 548.285 31.0625 549.301 32.0781C550.329 33.0938 551.618 33.6016 553.168 33.6016C555.342 33.6016 557.113 32.7227 558.48 30.9648L561.039 33.4062C560.193 34.6693 559.06 35.6523 557.641 36.3555C556.234 37.0456 554.652 37.3906 552.895 37.3906ZM552.328 19.2852C551.026 19.2852 549.971 19.7409 549.164 20.6523C548.37 21.5638 547.862 22.8333 547.641 24.4609H556.684V24.1094C556.579 22.5208 556.156 21.3229 555.414 20.5156C554.672 19.6953 553.643 19.2852 552.328 19.2852ZM574.379 37.3906C571.371 37.3906 568.93 36.4466 567.055 34.5586C565.193 32.6576 564.262 30.1315 564.262 26.9805V26.3945C564.262 24.2852 564.665 22.4036 565.473 20.75C566.293 19.0833 567.439 17.7878 568.91 16.8633C570.382 15.9388 572.022 15.4766 573.832 15.4766C576.71 15.4766 578.93 16.3945 580.492 18.2305C582.068 20.0664 582.855 22.6641 582.855 26.0234V27.9375H569.047C569.19 29.6823 569.77 31.0625 570.785 32.0781C571.814 33.0938 573.103 33.6016 574.652 33.6016C576.827 33.6016 578.598 32.7227 579.965 30.9648L582.523 33.4062C581.677 34.6693 580.544 35.6523 579.125 36.3555C577.719 37.0456 576.137 37.3906 574.379 37.3906ZM573.812 19.2852C572.51 19.2852 571.456 19.7409 570.648 20.6523C569.854 21.5638 569.346 22.8333 569.125 24.4609H578.168V24.1094C578.064 22.5208 577.641 21.3229 576.898 20.5156C576.156 19.6953 575.128 19.2852 573.812 19.2852ZM591.605 37H586.859V7H591.605V37ZM609.418 37C609.21 36.5964 609.027 35.9388 608.871 35.0273C607.361 36.6029 605.512 37.3906 603.324 37.3906C601.202 37.3906 599.47 36.7852 598.129 35.5742C596.788 34.3633 596.117 32.8659 596.117 31.082C596.117 28.8294 596.951 27.1042 598.617 25.9062C600.297 24.6953 602.693 24.0898 605.805 24.0898H608.715V22.7031C608.715 21.6094 608.409 20.737 607.797 20.0859C607.185 19.4219 606.254 19.0898 605.004 19.0898C603.923 19.0898 603.038 19.3633 602.348 19.9102C601.658 20.444 601.312 21.1276 601.312 21.9609H596.566C596.566 20.8021 596.951 19.7214 597.719 18.7188C598.487 17.7031 599.529 16.9089 600.844 16.3359C602.172 15.763 603.65 15.4766 605.277 15.4766C607.751 15.4766 609.724 16.1016 611.195 17.3516C612.667 18.5885 613.422 20.3333 613.461 22.5859V32.1172C613.461 34.0182 613.728 35.5352 614.262 36.668V37H609.418ZM604.203 33.582C605.141 33.582 606.02 33.3542 606.84 32.8984C607.673 32.4427 608.298 31.8307 608.715 31.0625V27.0781H606.156C604.398 27.0781 603.077 27.3841 602.191 27.9961C601.306 28.6081 600.863 29.474 600.863 30.5938C600.863 31.5052 601.163 32.2344 601.762 32.7812C602.374 33.3151 603.188 33.582 604.203 33.582ZM622.836 15.8672L622.973 18.3086C624.535 16.4206 626.586 15.4766 629.125 15.4766C633.526 15.4766 635.766 17.9961 635.844 23.0352V37H631.098V23.3086C631.098 21.9674 630.805 20.9779 630.219 20.3398C629.646 19.6888 628.702 19.3633 627.387 19.3633C625.473 19.3633 624.047 20.2292 623.109 21.9609V37H618.363V15.8672H622.836ZM649.379 33.6016C650.564 33.6016 651.547 33.2565 652.328 32.5664C653.109 31.8763 653.526 31.0234 653.578 30.0078H658.051C657.999 31.3229 657.589 32.5534 656.82 33.6992C656.052 34.832 655.01 35.7305 653.695 36.3945C652.38 37.0586 650.961 37.3906 649.438 37.3906C646.482 37.3906 644.138 36.4336 642.406 34.5195C640.674 32.6055 639.809 29.9622 639.809 26.5898V26.1016C639.809 22.8854 640.668 20.3138 642.387 18.3867C644.105 16.4466 646.449 15.4766 649.418 15.4766C651.931 15.4766 653.975 16.2122 655.551 17.6836C657.139 19.1419 657.973 21.0625 658.051 23.4453H653.578C653.526 22.2344 653.109 21.2383 652.328 20.457C651.56 19.6758 650.577 19.2852 649.379 19.2852C647.842 19.2852 646.658 19.8451 645.824 20.9648C644.991 22.0716 644.568 23.7578 644.555 26.0234V26.7852C644.555 29.0768 644.965 30.7891 645.785 31.9219C646.618 33.0417 647.816 33.6016 649.379 33.6016ZM666.684 37H661.938V15.8672H666.684V37ZM661.645 10.3789C661.645 9.64974 661.872 9.04427 662.328 8.5625C662.797 8.08073 663.461 7.83984 664.32 7.83984C665.18 7.83984 665.844 8.08073 666.312 8.5625C666.781 9.04427 667.016 9.64974 667.016 10.3789C667.016 11.0951 666.781 11.694 666.312 12.1758C665.844 12.6445 665.18 12.8789 664.32 12.8789C663.461 12.8789 662.797 12.6445 662.328 12.1758C661.872 11.694 661.645 11.0951 661.645 10.3789ZM676.273 15.8672L676.41 18.3086C677.973 16.4206 680.023 15.4766 682.562 15.4766C686.964 15.4766 689.203 17.9961 689.281 23.0352V37H684.535V23.3086C684.535 21.9674 684.242 20.9779 683.656 20.3398C683.083 19.6888 682.139 19.3633 680.824 19.3633C678.91 19.3633 677.484 20.2292 676.547 21.9609V37H671.801V15.8672H676.273ZM693.305 26.2773C693.305 22.9961 694.073 20.3789 695.609 18.4258C697.159 16.4596 699.21 15.4766 701.762 15.4766C704.171 15.4766 706.065 16.3164 707.445 17.9961L707.66 15.8672H711.938V36.3555C711.938 39.1289 711.072 41.3164 709.34 42.918C707.621 44.5195 705.297 45.3203 702.367 45.3203C700.818 45.3203 699.301 44.9948 697.816 44.3438C696.345 43.7057 695.225 42.8659 694.457 41.8242L696.703 38.9727C698.161 40.7044 699.958 41.5703 702.094 41.5703C703.669 41.5703 704.913 41.1406 705.824 40.2812C706.736 39.4349 707.191 38.1849 707.191 36.5312V35.1055C705.824 36.6289 704.001 37.3906 701.723 37.3906C699.249 37.3906 697.224 36.4076 695.648 34.4414C694.086 32.4753 693.305 29.7539 693.305 26.2773ZM698.031 26.6875C698.031 28.8099 698.461 30.4831 699.32 31.707C700.193 32.918 701.397 33.5234 702.934 33.5234C704.848 33.5234 706.267 32.7031 707.191 31.0625V21.7656C706.293 20.1641 704.887 19.3633 702.973 19.3633C701.41 19.3633 700.193 19.9818 699.32 21.2188C698.461 22.4557 698.031 24.2786 698.031 26.6875Z" fill="black"/>
<path d="M19.2773 289.949H7.83203V302H2.89062V273.562H20.957V277.547H7.83203V286.004H19.2773V289.949ZM34.9805 285.203C34.3555 285.099 33.7109 285.047 33.0469 285.047C30.8724 285.047 29.4076 285.88 28.6523 287.547V302H23.9062V280.867H28.4375L28.5547 283.23C29.7005 281.395 31.2891 280.477 33.3203 280.477C33.9974 280.477 34.5573 280.568 35 280.75L34.9805 285.203ZM46.8945 302.391C43.8867 302.391 41.4453 301.447 39.5703 299.559C37.7083 297.658 36.7773 295.132 36.7773 291.98V291.395C36.7773 289.285 37.181 287.404 37.9883 285.75C38.8086 284.083 39.9544 282.788 41.4258 281.863C42.8971 280.939 44.5378 280.477 46.3477 280.477C49.2253 280.477 51.4453 281.395 53.0078 283.23C54.5833 285.066 55.3711 287.664 55.3711 291.023V292.938H41.5625C41.7057 294.682 42.2852 296.062 43.3008 297.078C44.3294 298.094 45.6185 298.602 47.168 298.602C49.3424 298.602 51.1133 297.723 52.4805 295.965L55.0391 298.406C54.1927 299.669 53.0599 300.652 51.6406 301.355C50.2344 302.046 48.6523 302.391 46.8945 302.391ZM46.3281 284.285C45.026 284.285 43.9714 284.741 43.1641 285.652C42.3698 286.564 41.862 287.833 41.6406 289.461H50.6836V289.109C50.5794 287.521 50.1562 286.323 49.4141 285.516C48.6719 284.695 47.6432 284.285 46.3281 284.285ZM68.3789 302.391C65.3711 302.391 62.9297 301.447 61.0547 299.559C59.1927 297.658 58.2617 295.132 58.2617 291.98V291.395C58.2617 289.285 58.6654 287.404 59.4727 285.75C60.293 284.083 61.4388 282.788 62.9102 281.863C64.3815 280.939 66.0221 280.477 67.832 280.477C70.7096 280.477 72.9297 281.395 74.4922 283.23C76.0677 285.066 76.8555 287.664 76.8555 291.023V292.938H63.0469C63.1901 294.682 63.7695 296.062 64.7852 297.078C65.8138 298.094 67.1029 298.602 68.6523 298.602C70.8268 298.602 72.5977 297.723 73.9648 295.965L76.5234 298.406C75.6771 299.669 74.5443 300.652 73.125 301.355C71.7188 302.046 70.1367 302.391 68.3789 302.391ZM67.8125 284.285C66.5104 284.285 65.4557 284.741 64.6484 285.652C63.8542 286.564 63.3464 287.833 63.125 289.461H72.168V289.109C72.0638 287.521 71.6406 286.323 70.8984 285.516C70.1562 284.695 69.1276 284.285 67.8125 284.285ZM85.6055 302H80.8594V272H85.6055V302ZM103.418 302C103.21 301.596 103.027 300.939 102.871 300.027C101.361 301.603 99.5117 302.391 97.3242 302.391C95.2018 302.391 93.4701 301.785 92.1289 300.574C90.7878 299.363 90.1172 297.866 90.1172 296.082C90.1172 293.829 90.9505 292.104 92.6172 290.906C94.2969 289.695 96.6927 289.09 99.8047 289.09H102.715V287.703C102.715 286.609 102.409 285.737 101.797 285.086C101.185 284.422 100.254 284.09 99.0039 284.09C97.9232 284.09 97.0378 284.363 96.3477 284.91C95.6576 285.444 95.3125 286.128 95.3125 286.961H90.5664C90.5664 285.802 90.9505 284.721 91.7188 283.719C92.487 282.703 93.5286 281.909 94.8438 281.336C96.1719 280.763 97.6497 280.477 99.2773 280.477C101.751 280.477 103.724 281.102 105.195 282.352C106.667 283.589 107.422 285.333 107.461 287.586V297.117C107.461 299.018 107.728 300.535 108.262 301.668V302H103.418ZM98.2031 298.582C99.1406 298.582 100.02 298.354 100.84 297.898C101.673 297.443 102.298 296.831 102.715 296.062V292.078H100.156C98.3984 292.078 97.0768 292.384 96.1914 292.996C95.306 293.608 94.8633 294.474 94.8633 295.594C94.8633 296.505 95.1628 297.234 95.7617 297.781C96.3737 298.315 97.1875 298.582 98.2031 298.582ZM116.836 280.867L116.973 283.309C118.535 281.421 120.586 280.477 123.125 280.477C127.526 280.477 129.766 282.996 129.844 288.035V302H125.098V288.309C125.098 286.967 124.805 285.978 124.219 285.34C123.646 284.689 122.702 284.363 121.387 284.363C119.473 284.363 118.047 285.229 117.109 286.961V302H112.363V280.867H116.836ZM143.379 298.602C144.564 298.602 145.547 298.257 146.328 297.566C147.109 296.876 147.526 296.023 147.578 295.008H152.051C151.999 296.323 151.589 297.553 150.82 298.699C150.052 299.832 149.01 300.73 147.695 301.395C146.38 302.059 144.961 302.391 143.438 302.391C140.482 302.391 138.138 301.434 136.406 299.52C134.674 297.605 133.809 294.962 133.809 291.59V291.102C133.809 287.885 134.668 285.314 136.387 283.387C138.105 281.447 140.449 280.477 143.418 280.477C145.931 280.477 147.975 281.212 149.551 282.684C151.139 284.142 151.973 286.062 152.051 288.445H147.578C147.526 287.234 147.109 286.238 146.328 285.457C145.56 284.676 144.577 284.285 143.379 284.285C141.842 284.285 140.658 284.845 139.824 285.965C138.991 287.072 138.568 288.758 138.555 291.023V291.785C138.555 294.077 138.965 295.789 139.785 296.922C140.618 298.042 141.816 298.602 143.379 298.602ZM160.684 302H155.938V280.867H160.684V302ZM155.645 275.379C155.645 274.65 155.872 274.044 156.328 273.562C156.797 273.081 157.461 272.84 158.32 272.84C159.18 272.84 159.844 273.081 160.312 273.562C160.781 274.044 161.016 274.65 161.016 275.379C161.016 276.095 160.781 276.694 160.312 277.176C159.844 277.645 159.18 277.879 158.32 277.879C157.461 277.879 156.797 277.645 156.328 277.176C155.872 276.694 155.645 276.095 155.645 275.379ZM170.273 280.867L170.41 283.309C171.973 281.421 174.023 280.477 176.562 280.477C180.964 280.477 183.203 282.996 183.281 288.035V302H178.535V288.309C178.535 286.967 178.242 285.978 177.656 285.34C177.083 284.689 176.139 284.363 174.824 284.363C172.91 284.363 171.484 285.229 170.547 286.961V302H165.801V280.867H170.273ZM187.305 291.277C187.305 287.996 188.073 285.379 189.609 283.426C191.159 281.46 193.21 280.477 195.762 280.477C198.171 280.477 200.065 281.316 201.445 282.996L201.66 280.867H205.938V301.355C205.938 304.129 205.072 306.316 203.34 307.918C201.621 309.52 199.297 310.32 196.367 310.32C194.818 310.32 193.301 309.995 191.816 309.344C190.345 308.706 189.225 307.866 188.457 306.824L190.703 303.973C192.161 305.704 193.958 306.57 196.094 306.57C197.669 306.57 198.913 306.141 199.824 305.281C200.736 304.435 201.191 303.185 201.191 301.531V300.105C199.824 301.629 198.001 302.391 195.723 302.391C193.249 302.391 191.224 301.408 189.648 299.441C188.086 297.475 187.305 294.754 187.305 291.277ZM192.031 291.688C192.031 293.81 192.461 295.483 193.32 296.707C194.193 297.918 195.397 298.523 196.934 298.523C198.848 298.523 200.267 297.703 201.191 296.062V286.766C200.293 285.164 198.887 284.363 196.973 284.363C195.41 284.363 194.193 284.982 193.32 286.219C192.461 287.456 192.031 289.279 192.031 291.688Z" fill="black"/>
<path d="M521.188 75.9531H511.641V86H508.641V63.25H522.734V65.7188H511.641V73.5H521.188V75.9531ZM527.736 86H524.845V69.0938H527.736V86ZM524.611 64.6094C524.611 64.1406 524.751 63.7448 525.032 63.4219C525.324 63.099 525.751 62.9375 526.314 62.9375C526.876 62.9375 527.303 63.099 527.595 63.4219C527.887 63.7448 528.032 64.1406 528.032 64.6094C528.032 65.0781 527.887 65.4688 527.595 65.7812C527.303 66.0938 526.876 66.25 526.314 66.25C525.751 66.25 525.324 66.0938 525.032 65.7812C524.751 65.4688 524.611 65.0781 524.611 64.6094ZM536.674 82.0781L540.862 69.0938H543.815L537.753 86H535.549L529.424 69.0938H532.378L536.674 82.0781ZM552.113 86.3125C549.821 86.3125 547.957 85.5625 546.519 84.0625C545.082 82.5521 544.363 80.5365 544.363 78.0156V77.4844C544.363 75.8073 544.681 74.3125 545.316 73C545.962 71.6771 546.858 70.6458 548.004 69.9062C549.16 69.1562 550.41 68.7812 551.754 68.7812C553.952 68.7812 555.66 69.5052 556.879 70.9531C558.097 72.401 558.707 74.474 558.707 77.1719V78.375H547.254C547.295 80.0417 547.78 81.3906 548.707 82.4219C549.644 83.4427 550.832 83.9531 552.269 83.9531C553.29 83.9531 554.155 83.7448 554.863 83.3281C555.571 82.9115 556.191 82.3594 556.722 81.6719L558.488 83.0469C557.071 85.224 554.946 86.3125 552.113 86.3125ZM551.754 71.1562C550.587 71.1562 549.608 71.5833 548.816 72.4375C548.025 73.2812 547.535 74.4688 547.347 76H555.816V75.7812C555.733 74.3125 555.337 73.1771 554.629 72.375C553.92 71.5625 552.962 71.1562 551.754 71.1562ZM568.958 71.6875C568.521 71.6146 568.047 71.5781 567.536 71.5781C565.64 71.5781 564.354 72.3854 563.677 74V86H560.786V69.0938H563.599L563.646 71.0469C564.594 69.5365 565.937 68.7812 567.677 68.7812C568.239 68.7812 568.666 68.8542 568.958 69V71.6875ZM578.522 71.6875C578.084 71.6146 577.61 71.5781 577.1 71.5781C575.204 71.5781 573.918 72.3854 573.241 74V86H570.35V69.0938H573.162L573.209 71.0469C574.157 69.5365 575.501 68.7812 577.241 68.7812C577.803 68.7812 578.23 68.8542 578.522 69V71.6875ZM578.039 84.4844C578.039 83.9844 578.185 83.5677 578.476 83.2344C578.778 82.901 579.226 82.7344 579.82 82.7344C580.414 82.7344 580.862 82.901 581.164 83.2344C581.476 83.5677 581.632 83.9844 581.632 84.4844C581.632 84.9635 581.476 85.3646 581.164 85.6875C580.862 86.0104 580.414 86.1719 579.82 86.1719C579.226 86.1719 578.778 86.0104 578.476 85.6875C578.185 85.3646 578.039 84.9635 578.039 84.4844ZM591.915 83.9531C592.946 83.9531 593.847 83.6406 594.618 83.0156C595.389 82.3906 595.816 81.6094 595.899 80.6719H598.634C598.582 81.6406 598.248 82.5625 597.634 83.4375C597.019 84.3125 596.196 85.0104 595.165 85.5312C594.144 86.0521 593.061 86.3125 591.915 86.3125C589.613 86.3125 587.78 85.5469 586.415 84.0156C585.061 82.474 584.384 80.3698 584.384 77.7031V77.2188C584.384 75.5729 584.686 74.1094 585.29 72.8281C585.894 71.5469 586.759 70.5521 587.884 69.8438C589.019 69.1354 590.358 68.7812 591.899 68.7812C593.795 68.7812 595.368 69.349 596.618 70.4844C597.879 71.6198 598.55 73.0938 598.634 74.9062H595.899C595.816 73.8125 595.399 72.9167 594.649 72.2188C593.91 71.5104 592.993 71.1562 591.899 71.1562C590.431 71.1562 589.29 71.6875 588.478 72.75C587.675 73.8021 587.274 75.3281 587.274 77.3281V77.875C587.274 79.8229 587.675 81.3229 588.478 82.375C589.28 83.4271 590.425 83.9531 591.915 83.9531ZM599.838 77.3906C599.838 75.7344 600.161 74.2448 600.807 72.9219C601.463 71.599 602.369 70.5781 603.526 69.8594C604.692 69.1406 606.02 68.7812 607.51 68.7812C609.812 68.7812 611.671 69.5781 613.088 71.1719C614.515 72.7656 615.229 74.8854 615.229 77.5312V77.7344C615.229 79.3802 614.911 80.8594 614.276 82.1719C613.651 83.474 612.75 84.4896 611.573 85.2188C610.406 85.9479 609.062 86.3125 607.541 86.3125C605.25 86.3125 603.39 85.5156 601.963 83.9219C600.546 82.3281 599.838 80.2188 599.838 77.5938V77.3906ZM602.744 77.7344C602.744 79.6094 603.177 81.1146 604.041 82.25C604.916 83.3854 606.083 83.9531 607.541 83.9531C609.01 83.9531 610.177 83.3802 611.041 82.2344C611.906 81.0781 612.338 79.4635 612.338 77.3906C612.338 75.5365 611.895 74.0365 611.01 72.8906C610.135 71.7344 608.968 71.1562 607.51 71.1562C606.083 71.1562 604.932 71.724 604.057 72.8594C603.182 73.9948 602.744 75.6198 602.744 77.7344ZM620.293 69.0938L620.371 70.9688C621.61 69.5104 623.282 68.7812 625.386 68.7812C627.751 68.7812 629.36 69.6875 630.214 71.5C630.777 70.6875 631.506 70.0312 632.402 69.5312C633.308 69.0312 634.376 68.7812 635.605 68.7812C639.313 68.7812 641.199 70.7448 641.261 74.6719V86H638.371V74.8438C638.371 73.6354 638.095 72.7344 637.543 72.1406C636.99 71.5365 636.063 71.2344 634.761 71.2344C633.688 71.2344 632.798 71.5573 632.089 72.2031C631.381 72.8385 630.97 73.6979 630.855 74.7812V86H627.949V74.9219C627.949 72.4635 626.746 71.2344 624.339 71.2344C622.444 71.2344 621.147 72.0417 620.449 73.6562V86H617.558V69.0938H620.293ZM657.029 77.5156H649.404V75.1562H657.029V77.5156ZM674.032 76.7969H668.688V86H665.673V63.25H673.204C675.766 63.25 677.735 63.8333 679.11 65C680.495 66.1667 681.188 67.8646 681.188 70.0938C681.188 71.5104 680.803 72.7448 680.032 73.7969C679.271 74.849 678.209 75.6354 676.844 76.1562L682.188 85.8125V86H678.969L674.032 76.7969ZM668.688 74.3438H673.298C674.787 74.3438 675.969 73.9583 676.844 73.1875C677.73 72.4167 678.173 71.3854 678.173 70.0938C678.173 68.6875 677.751 67.6094 676.907 66.8594C676.074 66.1094 674.865 65.7292 673.282 65.7188H668.688V74.3438ZM690.689 86.3125C688.398 86.3125 686.533 85.5625 685.096 84.0625C683.658 82.5521 682.939 80.5365 682.939 78.0156V77.4844C682.939 75.8073 683.257 74.3125 683.893 73C684.538 71.6771 685.434 70.6458 686.58 69.9062C687.736 69.1562 688.986 68.7812 690.33 68.7812C692.528 68.7812 694.236 69.5052 695.455 70.9531C696.674 72.401 697.283 74.474 697.283 77.1719V78.375H685.83C685.872 80.0417 686.356 81.3906 687.283 82.4219C688.221 83.4427 689.408 83.9531 690.846 83.9531C691.866 83.9531 692.731 83.7448 693.439 83.3281C694.148 82.9115 694.768 82.3594 695.299 81.6719L697.064 83.0469C695.648 85.224 693.523 86.3125 690.689 86.3125ZM690.33 71.1562C689.163 71.1562 688.184 71.5833 687.393 72.4375C686.601 73.2812 686.111 74.4688 685.924 76H694.393V75.7812C694.309 74.3125 693.913 73.1771 693.205 72.375C692.497 71.5625 691.538 71.1562 690.33 71.1562ZM702.081 69.0938L702.159 70.9688C703.399 69.5104 705.071 68.7812 707.175 68.7812C709.54 68.7812 711.149 69.6875 712.003 71.5C712.566 70.6875 713.295 70.0312 714.191 69.5312C715.097 69.0312 716.165 68.7812 717.394 68.7812C721.102 68.7812 722.988 70.7448 723.05 74.6719V86H720.159V74.8438C720.159 73.6354 719.883 72.7344 719.331 72.1406C718.779 71.5365 717.852 71.2344 716.55 71.2344C715.477 71.2344 714.586 71.5573 713.878 72.2031C713.17 72.8385 712.758 73.6979 712.644 74.7812V86H709.738V74.9219C709.738 72.4635 708.534 71.2344 706.128 71.2344C704.232 71.2344 702.935 72.0417 702.238 73.6562V86H699.347V69.0938H702.081ZM725.379 77.3906C725.379 75.7344 725.702 74.2448 726.348 72.9219C727.004 71.599 727.911 70.5781 729.067 69.8594C730.234 69.1406 731.562 68.7812 733.051 68.7812C735.353 68.7812 737.213 69.5781 738.629 71.1719C740.056 72.7656 740.77 74.8854 740.77 77.5312V77.7344C740.77 79.3802 740.452 80.8594 739.817 82.1719C739.192 83.474 738.291 84.4896 737.114 85.2188C735.947 85.9479 734.603 86.3125 733.083 86.3125C730.791 86.3125 728.931 85.5156 727.504 83.9219C726.088 82.3281 725.379 80.2188 725.379 77.5938V77.3906ZM728.286 77.7344C728.286 79.6094 728.718 81.1146 729.583 82.25C730.458 83.3854 731.624 83.9531 733.083 83.9531C734.551 83.9531 735.718 83.3802 736.583 82.2344C737.447 81.0781 737.879 79.4635 737.879 77.3906C737.879 75.5365 737.437 74.0365 736.551 72.8906C735.676 71.7344 734.51 71.1562 733.051 71.1562C731.624 71.1562 730.473 71.724 729.598 72.8594C728.723 73.9948 728.286 75.6198 728.286 77.7344ZM747.037 65V69.0938H750.193V71.3281H747.037V81.8125C747.037 82.4896 747.178 83 747.459 83.3438C747.74 83.6771 748.219 83.8438 748.896 83.8438C749.23 83.8438 749.688 83.7812 750.271 83.6562V86C749.511 86.2083 748.771 86.3125 748.053 86.3125C746.761 86.3125 745.787 85.9219 745.131 85.1406C744.474 84.3594 744.146 83.25 744.146 81.8125V71.3281H741.068V69.0938H744.146V65H747.037ZM759.319 86.3125C757.028 86.3125 755.163 85.5625 753.726 84.0625C752.288 82.5521 751.569 80.5365 751.569 78.0156V77.4844C751.569 75.8073 751.887 74.3125 752.523 73C753.168 71.6771 754.064 70.6458 755.21 69.9062C756.366 69.1562 757.616 68.7812 758.96 68.7812C761.158 68.7812 762.866 69.5052 764.085 70.9531C765.304 72.401 765.913 74.474 765.913 77.1719V78.375H754.46C754.502 80.0417 754.986 81.3906 755.913 82.4219C756.851 83.4427 758.038 83.9531 759.476 83.9531C760.496 83.9531 761.361 83.7448 762.069 83.3281C762.778 82.9115 763.398 82.3594 763.929 81.6719L765.694 83.0469C764.278 85.224 762.153 86.3125 759.319 86.3125ZM758.96 71.1562C757.793 71.1562 756.814 71.5833 756.023 72.4375C755.231 73.2812 754.741 74.4688 754.554 76H763.023V75.7812C762.939 74.3125 762.543 73.1771 761.835 72.375C761.127 71.5625 760.168 71.1562 758.96 71.1562Z" fill="#7A777B"/>
<path d="M15.1875 340.953H5.64062V351H2.64062V328.25H16.7344V330.719H5.64062V338.5H15.1875V340.953ZM27.6406 336.688C27.2031 336.615 26.7292 336.578 26.2188 336.578C24.3229 336.578 23.0365 337.385 22.3594 339V351H19.4688V334.094H22.2812L22.3281 336.047C23.276 334.536 24.6198 333.781 26.3594 333.781C26.9219 333.781 27.349 333.854 27.6406 334V336.688ZM37.0156 351.312C34.724 351.312 32.8594 350.562 31.4219 349.062C29.9844 347.552 29.2656 345.536 29.2656 343.016V342.484C29.2656 340.807 29.5833 339.312 30.2188 338C30.8646 336.677 31.7604 335.646 32.9062 334.906C34.0625 334.156 35.3125 333.781 36.6562 333.781C38.8542 333.781 40.5625 334.505 41.7812 335.953C43 337.401 43.6094 339.474 43.6094 342.172V343.375H32.1562C32.1979 345.042 32.6823 346.391 33.6094 347.422C34.5469 348.443 35.7344 348.953 37.1719 348.953C38.1927 348.953 39.0573 348.745 39.7656 348.328C40.474 347.911 41.0938 347.359 41.625 346.672L43.3906 348.047C41.974 350.224 39.849 351.312 37.0156 351.312ZM36.6562 336.156C35.4896 336.156 34.5104 336.583 33.7188 337.438C32.9271 338.281 32.4375 339.469 32.25 341H40.7188V340.781C40.6354 339.312 40.2396 338.177 39.5312 337.375C38.8229 336.562 37.8646 336.156 36.6562 336.156ZM53.9844 351.312C51.6927 351.312 49.8281 350.562 48.3906 349.062C46.9531 347.552 46.2344 345.536 46.2344 343.016V342.484C46.2344 340.807 46.5521 339.312 47.1875 338C47.8333 336.677 48.7292 335.646 49.875 334.906C51.0312 334.156 52.2812 333.781 53.625 333.781C55.8229 333.781 57.5312 334.505 58.75 335.953C59.9688 337.401 60.5781 339.474 60.5781 342.172V343.375H49.125C49.1667 345.042 49.651 346.391 50.5781 347.422C51.5156 348.443 52.7031 348.953 54.1406 348.953C55.1615 348.953 56.026 348.745 56.7344 348.328C57.4427 347.911 58.0625 347.359 58.5938 346.672L60.3594 348.047C58.9427 350.224 56.8177 351.312 53.9844 351.312ZM53.625 336.156C52.4583 336.156 51.4792 336.583 50.6875 337.438C49.8958 338.281 49.4062 339.469 49.2188 341H57.6875V340.781C57.6042 339.312 57.2083 338.177 56.5 337.375C55.7917 336.562 54.8333 336.156 53.625 336.156ZM67.0781 351H64.1875V327H67.0781V351ZM82.1562 351C81.9896 350.667 81.8542 350.073 81.75 349.219C80.4062 350.615 78.8021 351.312 76.9375 351.312C75.2708 351.312 73.901 350.844 72.8281 349.906C71.7656 348.958 71.2344 347.76 71.2344 346.312C71.2344 344.552 71.901 343.188 73.2344 342.219C74.5781 341.24 76.4635 340.75 78.8906 340.75H81.7031V339.422C81.7031 338.411 81.401 337.609 80.7969 337.016C80.1927 336.411 79.3021 336.109 78.125 336.109C77.0938 336.109 76.2292 336.37 75.5312 336.891C74.8333 337.411 74.4844 338.042 74.4844 338.781H71.5781C71.5781 337.938 71.875 337.125 72.4688 336.344C73.0729 335.552 73.8854 334.927 74.9062 334.469C75.9375 334.01 77.0677 333.781 78.2969 333.781C80.2448 333.781 81.7708 334.271 82.875 335.25C83.9792 336.219 84.5521 337.557 84.5938 339.266V347.047C84.5938 348.599 84.7917 349.833 85.1875 350.75V351H82.1562ZM77.3594 348.797C78.2656 348.797 79.125 348.562 79.9375 348.094C80.75 347.625 81.3385 347.016 81.7031 346.266V342.797H79.4375C75.8958 342.797 74.125 343.833 74.125 345.906C74.125 346.812 74.4271 347.521 75.0312 348.031C75.6354 348.542 76.4115 348.797 77.3594 348.797ZM91.8594 334.094L91.9531 336.219C93.2448 334.594 94.9323 333.781 97.0156 333.781C100.589 333.781 102.391 335.797 102.422 339.828V351H99.5312V339.812C99.5208 338.594 99.2396 337.693 98.6875 337.109C98.1458 336.526 97.2969 336.234 96.1406 336.234C95.2031 336.234 94.3802 336.484 93.6719 336.984C92.9635 337.484 92.4115 338.141 92.0156 338.953V351H89.125V334.094H91.8594ZM113.562 348.953C114.594 348.953 115.495 348.641 116.266 348.016C117.036 347.391 117.464 346.609 117.547 345.672H120.281C120.229 346.641 119.896 347.562 119.281 348.438C118.667 349.312 117.844 350.01 116.812 350.531C115.792 351.052 114.708 351.312 113.562 351.312C111.26 351.312 109.427 350.547 108.062 349.016C106.708 347.474 106.031 345.37 106.031 342.703V342.219C106.031 340.573 106.333 339.109 106.938 337.828C107.542 336.547 108.406 335.552 109.531 334.844C110.667 334.135 112.005 333.781 113.547 333.781C115.443 333.781 117.016 334.349 118.266 335.484C119.526 336.62 120.198 338.094 120.281 339.906H117.547C117.464 338.812 117.047 337.917 116.297 337.219C115.557 336.51 114.641 336.156 113.547 336.156C112.078 336.156 110.938 336.688 110.125 337.75C109.323 338.802 108.922 340.328 108.922 342.328V342.875C108.922 344.823 109.323 346.323 110.125 347.375C110.927 348.427 112.073 348.953 113.562 348.953ZM130.547 351.312C128.255 351.312 126.391 350.562 124.953 349.062C123.516 347.552 122.797 345.536 122.797 343.016V342.484C122.797 340.807 123.115 339.312 123.75 338C124.396 336.677 125.292 335.646 126.438 334.906C127.594 334.156 128.844 333.781 130.188 333.781C132.385 333.781 134.094 334.505 135.312 335.953C136.531 337.401 137.141 339.474 137.141 342.172V343.375H125.688C125.729 345.042 126.214 346.391 127.141 347.422C128.078 348.443 129.266 348.953 130.703 348.953C131.724 348.953 132.589 348.745 133.297 348.328C134.005 347.911 134.625 347.359 135.156 346.672L136.922 348.047C135.505 350.224 133.38 351.312 130.547 351.312ZM130.188 336.156C129.021 336.156 128.042 336.583 127.25 337.438C126.458 338.281 125.969 339.469 125.781 341H134.25V340.781C134.167 339.312 133.771 338.177 133.062 337.375C132.354 336.562 131.396 336.156 130.188 336.156ZM148.672 336.688C148.234 336.615 147.76 336.578 147.25 336.578C145.354 336.578 144.068 337.385 143.391 339V351H140.5V334.094H143.312L143.359 336.047C144.307 334.536 145.651 333.781 147.391 333.781C147.953 333.781 148.38 333.854 148.672 334V336.688ZM149.469 349.484C149.469 348.984 149.615 348.568 149.906 348.234C150.208 347.901 150.656 347.734 151.25 347.734C151.844 347.734 152.292 347.901 152.594 348.234C152.906 348.568 153.062 348.984 153.062 349.484C153.062 349.964 152.906 350.365 152.594 350.688C152.292 351.01 151.844 351.172 151.25 351.172C150.656 351.172 150.208 351.01 149.906 350.688C149.615 350.365 149.469 349.964 149.469 349.484ZM164.625 348.953C165.656 348.953 166.557 348.641 167.328 348.016C168.099 347.391 168.526 346.609 168.609 345.672H171.344C171.292 346.641 170.958 347.562 170.344 348.438C169.729 349.312 168.906 350.01 167.875 350.531C166.854 351.052 165.771 351.312 164.625 351.312C162.323 351.312 160.49 350.547 159.125 349.016C157.771 347.474 157.094 345.37 157.094 342.703V342.219C157.094 340.573 157.396 339.109 158 337.828C158.604 336.547 159.469 335.552 160.594 334.844C161.729 334.135 163.068 333.781 164.609 333.781C166.505 333.781 168.078 334.349 169.328 335.484C170.589 336.62 171.26 338.094 171.344 339.906H168.609C168.526 338.812 168.109 337.917 167.359 337.219C166.62 336.51 165.703 336.156 164.609 336.156C163.141 336.156 162 336.688 161.188 337.75C160.385 338.802 159.984 340.328 159.984 342.328V342.875C159.984 344.823 160.385 346.323 161.188 347.375C161.99 348.427 163.135 348.953 164.625 348.953ZM173.828 342.391C173.828 340.734 174.151 339.245 174.797 337.922C175.453 336.599 176.359 335.578 177.516 334.859C178.682 334.141 180.01 333.781 181.5 333.781C183.802 333.781 185.661 334.578 187.078 336.172C188.505 337.766 189.219 339.885 189.219 342.531V342.734C189.219 344.38 188.901 345.859 188.266 347.172C187.641 348.474 186.74 349.49 185.562 350.219C184.396 350.948 183.052 351.312 181.531 351.312C179.24 351.312 177.38 350.516 175.953 348.922C174.536 347.328 173.828 345.219 173.828 342.594V342.391ZM176.734 342.734C176.734 344.609 177.167 346.115 178.031 347.25C178.906 348.385 180.073 348.953 181.531 348.953C183 348.953 184.167 348.38 185.031 347.234C185.896 346.078 186.328 344.464 186.328 342.391C186.328 340.536 185.885 339.036 185 337.891C184.125 336.734 182.958 336.156 181.5 336.156C180.073 336.156 178.922 336.724 178.047 337.859C177.172 338.995 176.734 340.62 176.734 342.734ZM195.562 334.094L195.641 335.969C196.88 334.51 198.552 333.781 200.656 333.781C203.021 333.781 204.63 334.688 205.484 336.5C206.047 335.688 206.776 335.031 207.672 334.531C208.578 334.031 209.646 333.781 210.875 333.781C214.583 333.781 216.469 335.745 216.531 339.672V351H213.641V339.844C213.641 338.635 213.365 337.734 212.812 337.141C212.26 336.536 211.333 336.234 210.031 336.234C208.958 336.234 208.068 336.557 207.359 337.203C206.651 337.839 206.24 338.698 206.125 339.781V351H203.219V339.922C203.219 337.464 202.016 336.234 199.609 336.234C197.714 336.234 196.417 337.042 195.719 338.656V351H192.828V334.094H195.562ZM234.859 342.516H227.234V340.156H234.859V342.516ZM254.422 341.797H249.078V351H246.062V328.25H253.594C256.156 328.25 258.125 328.833 259.5 330C260.885 331.167 261.578 332.865 261.578 335.094C261.578 336.51 261.193 337.745 260.422 338.797C259.661 339.849 258.599 340.635 257.234 341.156L262.578 350.812V351H259.359L254.422 341.797ZM249.078 339.344H253.688C255.177 339.344 256.359 338.958 257.234 338.188C258.12 337.417 258.562 336.385 258.562 335.094C258.562 333.688 258.141 332.609 257.297 331.859C256.464 331.109 255.255 330.729 253.672 330.719H249.078V339.344ZM272.359 351.312C270.068 351.312 268.203 350.562 266.766 349.062C265.328 347.552 264.609 345.536 264.609 343.016V342.484C264.609 340.807 264.927 339.312 265.562 338C266.208 336.677 267.104 335.646 268.25 334.906C269.406 334.156 270.656 333.781 272 333.781C274.198 333.781 275.906 334.505 277.125 335.953C278.344 337.401 278.953 339.474 278.953 342.172V343.375H267.5C267.542 345.042 268.026 346.391 268.953 347.422C269.891 348.443 271.078 348.953 272.516 348.953C273.536 348.953 274.401 348.745 275.109 348.328C275.818 347.911 276.438 347.359 276.969 346.672L278.734 348.047C277.318 350.224 275.193 351.312 272.359 351.312ZM272 336.156C270.833 336.156 269.854 336.583 269.062 337.438C268.271 338.281 267.781 339.469 267.594 341H276.062V340.781C275.979 339.312 275.583 338.177 274.875 337.375C274.167 336.562 273.208 336.156 272 336.156ZM285.031 334.094L285.109 335.969C286.349 334.51 288.021 333.781 290.125 333.781C292.49 333.781 294.099 334.688 294.953 336.5C295.516 335.688 296.245 335.031 297.141 334.531C298.047 334.031 299.115 333.781 300.344 333.781C304.052 333.781 305.938 335.745 306 339.672V351H303.109V339.844C303.109 338.635 302.833 337.734 302.281 337.141C301.729 336.536 300.802 336.234 299.5 336.234C298.427 336.234 297.536 336.557 296.828 337.203C296.12 337.839 295.708 338.698 295.594 339.781V351H292.688V339.922C292.688 337.464 291.484 336.234 289.078 336.234C287.182 336.234 285.885 337.042 285.188 338.656V351H282.297V334.094H285.031ZM309.609 342.391C309.609 340.734 309.932 339.245 310.578 337.922C311.234 336.599 312.141 335.578 313.297 334.859C314.464 334.141 315.792 333.781 317.281 333.781C319.583 333.781 321.443 334.578 322.859 336.172C324.286 337.766 325 339.885 325 342.531V342.734C325 344.38 324.682 345.859 324.047 347.172C323.422 348.474 322.521 349.49 321.344 350.219C320.177 350.948 318.833 351.312 317.312 351.312C315.021 351.312 313.161 350.516 311.734 348.922C310.318 347.328 309.609 345.219 309.609 342.594V342.391ZM312.516 342.734C312.516 344.609 312.948 346.115 313.812 347.25C314.688 348.385 315.854 348.953 317.312 348.953C318.781 348.953 319.948 348.38 320.812 347.234C321.677 346.078 322.109 344.464 322.109 342.391C322.109 340.536 321.667 339.036 320.781 337.891C319.906 336.734 318.74 336.156 317.281 336.156C315.854 336.156 314.703 336.724 313.828 337.859C312.953 338.995 312.516 340.62 312.516 342.734ZM332.547 330V334.094H335.703V336.328H332.547V346.812C332.547 347.49 332.688 348 332.969 348.344C333.25 348.677 333.729 348.844 334.406 348.844C334.74 348.844 335.198 348.781 335.781 348.656V351C335.021 351.208 334.281 351.312 333.562 351.312C332.271 351.312 331.297 350.922 330.641 350.141C329.984 349.359 329.656 348.25 329.656 346.812V336.328H326.578V334.094H329.656V330H332.547ZM346.109 351.312C343.818 351.312 341.953 350.562 340.516 349.062C339.078 347.552 338.359 345.536 338.359 343.016V342.484C338.359 340.807 338.677 339.312 339.312 338C339.958 336.677 340.854 335.646 342 334.906C343.156 334.156 344.406 333.781 345.75 333.781C347.948 333.781 349.656 334.505 350.875 335.953C352.094 337.401 352.703 339.474 352.703 342.172V343.375H341.25C341.292 345.042 341.776 346.391 342.703 347.422C343.641 348.443 344.828 348.953 346.266 348.953C347.286 348.953 348.151 348.745 348.859 348.328C349.568 347.911 350.188 347.359 350.719 346.672L352.484 348.047C351.068 350.224 348.943 351.312 346.109 351.312ZM345.75 336.156C344.583 336.156 343.604 336.583 342.812 337.438C342.021 338.281 341.531 339.469 341.344 341H349.812V340.781C349.729 339.312 349.333 338.177 348.625 337.375C347.917 336.562 346.958 336.156 345.75 336.156Z" fill="#7A777B"/>
<path d="M518 126C518.198 126 518.391 125.941 518.556 125.831C518.72 125.722 518.848 125.565 518.924 125.383C519 125.2 519.019 124.999 518.981 124.805C518.942 124.611 518.847 124.433 518.707 124.293C518.567 124.153 518.389 124.058 518.195 124.019C518.001 123.981 517.8 124 517.617 124.076C517.435 124.152 517.278 124.28 517.169 124.444C517.059 124.609 517 124.802 517 125C517 125.265 517.105 125.52 517.293 125.707C517.48 125.895 517.735 126 518 126ZM523 126C523.198 126 523.391 125.941 523.556 125.831C523.72 125.722 523.848 125.565 523.924 125.383C524 125.2 524.019 124.999 523.981 124.805C523.942 124.611 523.847 124.433 523.707 124.293C523.567 124.153 523.389 124.058 523.195 124.019C523.001 123.981 522.8 124 522.617 124.076C522.435 124.152 522.278 124.28 522.169 124.444C522.059 124.609 522 124.802 522 125C522 125.265 522.105 125.52 522.293 125.707C522.48 125.895 522.735 126 523 126ZM518 130C518.198 130 518.391 129.941 518.556 129.831C518.72 129.722 518.848 129.565 518.924 129.383C519 129.2 519.019 128.999 518.981 128.805C518.942 128.611 518.847 128.433 518.707 128.293C518.567 128.153 518.389 128.058 518.195 128.019C518.001 127.981 517.8 128 517.617 128.076C517.435 128.152 517.278 128.28 517.169 128.444C517.059 128.609 517 128.802 517 129C517 129.265 517.105 129.52 517.293 129.707C517.48 129.895 517.735 130 518 130ZM523 130C523.198 130 523.391 129.941 523.556 129.831C523.72 129.722 523.848 129.565 523.924 129.383C524 129.2 524.019 128.999 523.981 128.805C523.942 128.611 523.847 128.433 523.707 128.293C523.567 128.153 523.389 128.058 523.195 128.019C523.001 127.981 522.8 128 522.617 128.076C522.435 128.152 522.278 128.28 522.169 128.444C522.059 128.609 522 128.802 522 129C522 129.265 522.105 129.52 522.293 129.707C522.48 129.895 522.735 130 523 130ZM513 126C513.198 126 513.391 125.941 513.556 125.831C513.72 125.722 513.848 125.565 513.924 125.383C514 125.2 514.019 124.999 513.981 124.805C513.942 124.611 513.847 124.433 513.707 124.293C513.567 124.153 513.389 124.058 513.195 124.019C513.001 123.981 512.8 124 512.617 124.076C512.435 124.152 512.278 124.28 512.169 124.444C512.059 124.609 512 124.802 512 125C512 125.265 512.105 125.52 512.293 125.707C512.48 125.895 512.735 126 513 126ZM525 116H524V115C524 114.735 523.895 114.48 523.707 114.293C523.52 114.105 523.265 114 523 114C522.735 114 522.48 114.105 522.293 114.293C522.105 114.48 522 114.735 522 115V116H514V115C514 114.735 513.895 114.48 513.707 114.293C513.52 114.105 513.265 114 513 114C512.735 114 512.48 114.105 512.293 114.293C512.105 114.48 512 114.735 512 115V116H511C510.204 116 509.441 116.316 508.879 116.879C508.316 117.441 508 118.204 508 119V131C508 131.796 508.316 132.559 508.879 133.121C509.441 133.684 510.204 134 511 134H525C525.796 134 526.559 133.684 527.121 133.121C527.684 132.559 528 131.796 528 131V119C528 118.204 527.684 117.441 527.121 116.879C526.559 116.316 525.796 116 525 116V116ZM526 131C526 131.265 525.895 131.52 525.707 131.707C525.52 131.895 525.265 132 525 132H511C510.735 132 510.48 131.895 510.293 131.707C510.105 131.52 510 131.265 510 131V122H526V131ZM526 120H510V119C510 118.735 510.105 118.48 510.293 118.293C510.48 118.105 510.735 118 511 118H525C525.265 118 525.52 118.105 525.707 118.293C525.895 118.48 526 118.735 526 119V120ZM513 130C513.198 130 513.391 129.941 513.556 129.831C513.72 129.722 513.848 129.565 513.924 129.383C514 129.2 514.019 128.999 513.981 128.805C513.942 128.611 513.847 128.433 513.707 128.293C513.567 128.153 513.389 128.058 513.195 128.019C513.001 127.981 512.8 128 512.617 128.076C512.435 128.152 512.278 128.28 512.169 128.444C512.059 128.609 512 128.802 512 129C512 129.265 512.105 129.52 512.293 129.707C512.48 129.895 512.735 130 513 130Z" fill="#C1C0C4"/>
<path d="M12 391C12.1978 391 12.3911 390.941 12.5556 390.831C12.72 390.722 12.8482 390.565 12.9239 390.383C12.9996 390.2 13.0194 389.999 12.9808 389.805C12.9422 389.611 12.847 389.433 12.7071 389.293C12.5673 389.153 12.3891 389.058 12.1951 389.019C12.0011 388.981 11.8 389 11.6173 389.076C11.4346 389.152 11.2784 389.28 11.1685 389.444C11.0586 389.609 11 389.802 11 390C11 390.265 11.1054 390.52 11.2929 390.707C11.4804 390.895 11.7348 391 12 391ZM17 391C17.1978 391 17.3911 390.941 17.5556 390.831C17.72 390.722 17.8482 390.565 17.9239 390.383C17.9996 390.2 18.0194 389.999 17.9808 389.805C17.9422 389.611 17.847 389.433 17.7071 389.293C17.5673 389.153 17.3891 389.058 17.1951 389.019C17.0011 388.981 16.8 389 16.6173 389.076C16.4346 389.152 16.2784 389.28 16.1685 389.444C16.0586 389.609 16 389.802 16 390C16 390.265 16.1054 390.52 16.2929 390.707C16.4804 390.895 16.7348 391 17 391ZM12 395C12.1978 395 12.3911 394.941 12.5556 394.831C12.72 394.722 12.8482 394.565 12.9239 394.383C12.9996 394.2 13.0194 393.999 12.9808 393.805C12.9422 393.611 12.847 393.433 12.7071 393.293C12.5673 393.153 12.3891 393.058 12.1951 393.019C12.0011 392.981 11.8 393 11.6173 393.076C11.4346 393.152 11.2784 393.28 11.1685 393.444C11.0586 393.609 11 393.802 11 394C11 394.265 11.1054 394.52 11.2929 394.707C11.4804 394.895 11.7348 395 12 395ZM17 395C17.1978 395 17.3911 394.941 17.5556 394.831C17.72 394.722 17.8482 394.565 17.9239 394.383C17.9996 394.2 18.0194 393.999 17.9808 393.805C17.9422 393.611 17.847 393.433 17.7071 393.293C17.5673 393.153 17.3891 393.058 17.1951 393.019C17.0011 392.981 16.8 393 16.6173 393.076C16.4346 393.152 16.2784 393.28 16.1685 393.444C16.0586 393.609 16 393.802 16 394C16 394.265 16.1054 394.52 16.2929 394.707C16.4804 394.895 16.7348 395 17 395ZM7 391C7.19778 391 7.39112 390.941 7.55557 390.831C7.72002 390.722 7.84819 390.565 7.92388 390.383C7.99957 390.2 8.01937 389.999 7.98079 389.805C7.9422 389.611 7.84696 389.433 7.70711 389.293C7.56725 389.153 7.38907 389.058 7.19509 389.019C7.00111 388.981 6.80004 389 6.61732 389.076C6.43459 389.152 6.27841 389.28 6.16853 389.444C6.05865 389.609 6 389.802 6 390C6 390.265 6.10536 390.52 6.29289 390.707C6.48043 390.895 6.73478 391 7 391ZM19 381H18V380C18 379.735 17.8946 379.48 17.7071 379.293C17.5196 379.105 17.2652 379 17 379C16.7348 379 16.4804 379.105 16.2929 379.293C16.1054 379.48 16 379.735 16 380V381H8V380C8 379.735 7.89464 379.48 7.70711 379.293C7.51957 379.105 7.26522 379 7 379C6.73478 379 6.48043 379.105 6.29289 379.293C6.10536 379.48 6 379.735 6 380V381H5C4.20435 381 3.44129 381.316 2.87868 381.879C2.31607 382.441 2 383.204 2 384V396C2 396.796 2.31607 397.559 2.87868 398.121C3.44129 398.684 4.20435 399 5 399H19C19.7956 399 20.5587 398.684 21.1213 398.121C21.6839 397.559 22 396.796 22 396V384C22 383.204 21.6839 382.441 21.1213 381.879C20.5587 381.316 19.7956 381 19 381V381ZM20 396C20 396.265 19.8946 396.52 19.7071 396.707C19.5196 396.895 19.2652 397 19 397H5C4.73478 397 4.48043 396.895 4.29289 396.707C4.10536 396.52 4 396.265 4 396V387H20V396ZM20 385H4V384C4 383.735 4.10536 383.48 4.29289 383.293C4.48043 383.105 4.73478 383 5 383H19C19.2652 383 19.5196 383.105 19.7071 383.293C19.8946 383.48 20 383.735 20 384V385ZM7 395C7.19778 395 7.39112 394.941 7.55557 394.831C7.72002 394.722 7.84819 394.565 7.92388 394.383C7.99957 394.2 8.01937 393.999 7.98079 393.805C7.9422 393.611 7.84696 393.433 7.70711 393.293C7.56725 393.153 7.38907 393.058 7.19509 393.019C7.00111 392.981 6.80004 393 6.61732 393.076C6.43459 393.152 6.27841 393.28 6.16853 393.444C6.05865 393.609 6 393.802 6 394C6 394.265 6.10536 394.52 6.29289 394.707C6.48043 394.895 6.73478 395 7 395Z" fill="#C1C0C4"/>
<path d="M549.498 132H540.182V130.701L545.104 125.232C545.833 124.406 546.334 123.735 546.607 123.221C546.887 122.7 547.027 122.163 547.027 121.609C547.027 120.867 546.803 120.258 546.354 119.783C545.904 119.308 545.305 119.07 544.557 119.07C543.658 119.07 542.958 119.327 542.457 119.842C541.962 120.35 541.715 121.059 541.715 121.971H539.908C539.908 120.662 540.328 119.604 541.168 118.797C542.014 117.99 543.144 117.586 544.557 117.586C545.878 117.586 546.923 117.934 547.691 118.631C548.46 119.321 548.844 120.242 548.844 121.395C548.844 122.794 547.952 124.461 546.168 126.395L542.359 130.525H549.498V132ZM560.328 125.936C560.328 128.051 559.967 129.624 559.244 130.652C558.521 131.681 557.392 132.195 555.855 132.195C554.339 132.195 553.215 131.694 552.486 130.691C551.757 129.682 551.38 128.178 551.354 126.18V123.768C551.354 121.678 551.715 120.125 552.438 119.109C553.16 118.094 554.293 117.586 555.836 117.586C557.366 117.586 558.492 118.077 559.215 119.061C559.938 120.037 560.309 121.548 560.328 123.592V125.936ZM558.521 123.465C558.521 121.935 558.307 120.822 557.877 120.125C557.447 119.422 556.767 119.07 555.836 119.07C554.911 119.07 554.238 119.419 553.814 120.115C553.391 120.812 553.173 121.883 553.16 123.328V126.219C553.16 127.755 553.382 128.891 553.824 129.627C554.273 130.356 554.951 130.721 555.855 130.721C556.747 130.721 557.408 130.376 557.838 129.686C558.274 128.995 558.502 127.908 558.521 126.424V123.465ZM571.959 132H562.643V130.701L567.564 125.232C568.294 124.406 568.795 123.735 569.068 123.221C569.348 122.7 569.488 122.163 569.488 121.609C569.488 120.867 569.264 120.258 568.814 119.783C568.365 119.308 567.766 119.07 567.018 119.07C566.119 119.07 565.419 119.327 564.918 119.842C564.423 120.35 564.176 121.059 564.176 121.971H562.369C562.369 120.662 562.789 119.604 563.629 118.797C564.475 117.99 565.605 117.586 567.018 117.586C568.339 117.586 569.384 117.934 570.152 118.631C570.921 119.321 571.305 120.242 571.305 121.395C571.305 122.794 570.413 124.461 568.629 126.395L564.82 130.525H571.959V132ZM582.789 125.936C582.789 128.051 582.428 129.624 581.705 130.652C580.982 131.681 579.853 132.195 578.316 132.195C576.799 132.195 575.676 131.694 574.947 130.691C574.218 129.682 573.84 128.178 573.814 126.18V123.768C573.814 121.678 574.176 120.125 574.898 119.109C575.621 118.094 576.754 117.586 578.297 117.586C579.827 117.586 580.953 118.077 581.676 119.061C582.398 120.037 582.77 121.548 582.789 123.592V125.936ZM580.982 123.465C580.982 121.935 580.768 120.822 580.338 120.125C579.908 119.422 579.228 119.07 578.297 119.07C577.372 119.07 576.699 119.419 576.275 120.115C575.852 120.812 575.634 121.883 575.621 123.328V126.219C575.621 127.755 575.842 128.891 576.285 129.627C576.734 130.356 577.411 130.721 578.316 130.721C579.208 130.721 579.869 130.376 580.299 129.686C580.735 128.995 580.963 127.908 580.982 126.424V123.465ZM594.01 126.697H589.244V125.223H594.01V126.697ZM609.664 126.834C609.664 128.442 609.296 129.738 608.561 130.721C607.825 131.704 606.829 132.195 605.572 132.195C604.29 132.195 603.281 131.788 602.545 130.975V136.062H600.738V121.434H602.389L602.477 122.605C603.212 121.694 604.234 121.238 605.543 121.238C606.812 121.238 607.815 121.717 608.551 122.674C609.293 123.631 609.664 124.962 609.664 126.668V126.834ZM607.857 126.629C607.857 125.438 607.604 124.497 607.096 123.807C606.588 123.117 605.891 122.771 605.006 122.771C603.912 122.771 603.092 123.257 602.545 124.227V129.275C603.085 130.239 603.912 130.721 605.025 130.721C605.891 130.721 606.578 130.379 607.086 129.695C607.6 129.005 607.857 127.983 607.857 126.629ZM617.076 123.055C616.803 123.009 616.507 122.986 616.188 122.986C615.003 122.986 614.199 123.491 613.775 124.5V132H611.969V121.434H613.727L613.756 122.654C614.348 121.71 615.188 121.238 616.275 121.238C616.627 121.238 616.894 121.284 617.076 121.375V123.055ZM622.936 132.195C621.503 132.195 620.338 131.727 619.439 130.789C618.541 129.845 618.092 128.585 618.092 127.01V126.678C618.092 125.63 618.29 124.695 618.688 123.875C619.091 123.048 619.651 122.404 620.367 121.941C621.09 121.473 621.871 121.238 622.711 121.238C624.085 121.238 625.152 121.691 625.914 122.596C626.676 123.501 627.057 124.796 627.057 126.482V127.234H619.898C619.924 128.276 620.227 129.119 620.807 129.764C621.393 130.402 622.135 130.721 623.033 130.721C623.671 130.721 624.212 130.59 624.654 130.33C625.097 130.07 625.484 129.725 625.816 129.295L626.92 130.154C626.035 131.515 624.706 132.195 622.936 132.195ZM622.711 122.723C621.982 122.723 621.37 122.99 620.875 123.523C620.38 124.051 620.074 124.793 619.957 125.75H625.25V125.613C625.198 124.695 624.951 123.986 624.508 123.484C624.065 122.977 623.466 122.723 622.711 122.723ZM635.309 129.197C635.309 128.709 635.123 128.331 634.752 128.064C634.387 127.791 633.746 127.557 632.828 127.361C631.917 127.166 631.191 126.932 630.65 126.658C630.117 126.385 629.719 126.059 629.459 125.682C629.205 125.304 629.078 124.855 629.078 124.334C629.078 123.468 629.443 122.736 630.172 122.137C630.908 121.538 631.845 121.238 632.984 121.238C634.182 121.238 635.152 121.548 635.895 122.166C636.643 122.785 637.018 123.576 637.018 124.539H635.201C635.201 124.044 634.99 123.618 634.566 123.26C634.15 122.902 633.622 122.723 632.984 122.723C632.327 122.723 631.812 122.866 631.441 123.152C631.07 123.439 630.885 123.813 630.885 124.275C630.885 124.712 631.057 125.04 631.402 125.262C631.747 125.483 632.369 125.695 633.268 125.896C634.173 126.098 634.905 126.339 635.465 126.619C636.025 126.899 636.438 127.238 636.705 127.635C636.979 128.025 637.115 128.504 637.115 129.07C637.115 130.014 636.738 130.773 635.982 131.346C635.227 131.912 634.247 132.195 633.043 132.195C632.197 132.195 631.448 132.046 630.797 131.746C630.146 131.447 629.635 131.03 629.264 130.496C628.899 129.956 628.717 129.373 628.717 128.748H630.523C630.556 129.354 630.797 129.835 631.246 130.193C631.702 130.545 632.301 130.721 633.043 130.721C633.727 130.721 634.273 130.584 634.684 130.311C635.1 130.031 635.309 129.66 635.309 129.197ZM643.854 132.195C642.421 132.195 641.256 131.727 640.357 130.789C639.459 129.845 639.01 128.585 639.01 127.01V126.678C639.01 125.63 639.208 124.695 639.605 123.875C640.009 123.048 640.569 122.404 641.285 121.941C642.008 121.473 642.789 121.238 643.629 121.238C645.003 121.238 646.07 121.691 646.832 122.596C647.594 123.501 647.975 124.796 647.975 126.482V127.234H640.816C640.842 128.276 641.145 129.119 641.725 129.764C642.311 130.402 643.053 130.721 643.951 130.721C644.589 130.721 645.13 130.59 645.572 130.33C646.015 130.07 646.402 129.725 646.734 129.295L647.838 130.154C646.952 131.515 645.624 132.195 643.854 132.195ZM643.629 122.723C642.9 122.723 642.288 122.99 641.793 123.523C641.298 124.051 640.992 124.793 640.875 125.75H646.168V125.613C646.116 124.695 645.868 123.986 645.426 123.484C644.983 122.977 644.384 122.723 643.629 122.723ZM651.783 121.434L651.842 122.762C652.649 121.746 653.704 121.238 655.006 121.238C657.239 121.238 658.365 122.498 658.385 125.018V132H656.578V125.008C656.572 124.246 656.396 123.683 656.051 123.318C655.712 122.954 655.182 122.771 654.459 122.771C653.873 122.771 653.359 122.928 652.916 123.24C652.473 123.553 652.128 123.963 651.881 124.471V132H650.074V121.434H651.783ZM663.561 118.875V121.434H665.533V122.83H663.561V129.383C663.561 129.806 663.648 130.125 663.824 130.34C664 130.548 664.299 130.652 664.723 130.652C664.931 130.652 665.217 130.613 665.582 130.535V132C665.107 132.13 664.645 132.195 664.195 132.195C663.388 132.195 662.779 131.951 662.369 131.463C661.959 130.975 661.754 130.281 661.754 129.383V122.83H659.83V121.434H661.754V118.875H663.561Z" fill="#C4C4C4"/>
<path d="M43.498 397H34.1816V395.701L39.1035 390.232C39.8327 389.406 40.334 388.735 40.6074 388.221C40.8874 387.7 41.0273 387.163 41.0273 386.609C41.0273 385.867 40.8027 385.258 40.3535 384.783C39.9043 384.308 39.3053 384.07 38.5566 384.07C37.6582 384.07 36.9583 384.327 36.457 384.842C35.9622 385.35 35.7148 386.059 35.7148 386.971H33.9082C33.9082 385.662 34.3281 384.604 35.168 383.797C36.0143 382.99 37.1439 382.586 38.5566 382.586C39.8783 382.586 40.9232 382.934 41.6914 383.631C42.4596 384.321 42.8438 385.242 42.8438 386.395C42.8438 387.794 41.9518 389.461 40.168 391.395L36.3594 395.525H43.498V397ZM54.3281 390.936C54.3281 393.051 53.9668 394.624 53.2441 395.652C52.5215 396.681 51.3919 397.195 49.8555 397.195C48.3385 397.195 47.2155 396.694 46.4863 395.691C45.7572 394.682 45.3796 393.178 45.3535 391.18V388.768C45.3535 386.678 45.7148 385.125 46.4375 384.109C47.1602 383.094 48.293 382.586 49.8359 382.586C51.3659 382.586 52.4922 383.077 53.2148 384.061C53.9375 385.037 54.3086 386.548 54.3281 388.592V390.936ZM52.5215 388.465C52.5215 386.935 52.3066 385.822 51.877 385.125C51.4473 384.422 50.7669 384.07 49.8359 384.07C48.9115 384.07 48.2376 384.419 47.8145 385.115C47.3913 385.812 47.1732 386.883 47.1602 388.328V391.219C47.1602 392.755 47.3815 393.891 47.8242 394.627C48.2734 395.356 48.9505 395.721 49.8555 395.721C50.7474 395.721 51.4082 395.376 51.8379 394.686C52.2741 393.995 52.502 392.908 52.5215 391.424V388.465ZM62.5801 397H60.7637V384.959L57.1211 386.297V384.656L62.2969 382.713H62.5801V397ZM74.7969 390.75C74.4193 391.199 73.9668 391.561 73.4395 391.834C72.9186 392.107 72.3457 392.244 71.7207 392.244C70.9004 392.244 70.1842 392.042 69.5723 391.639C68.9668 391.235 68.498 390.669 68.166 389.939C67.834 389.204 67.668 388.393 67.668 387.508C67.668 386.557 67.847 385.701 68.2051 384.939C68.5697 384.178 69.084 383.595 69.748 383.191C70.4121 382.788 71.1868 382.586 72.0723 382.586C73.4785 382.586 74.5853 383.113 75.3926 384.168C76.2064 385.216 76.6133 386.648 76.6133 388.465V388.992C76.6133 391.759 76.0664 393.781 74.9727 395.057C73.8789 396.326 72.2285 396.977 70.0215 397.01H69.6699V395.486H70.0508C71.5417 395.46 72.6875 395.073 73.4883 394.324C74.2891 393.569 74.7253 392.378 74.7969 390.75ZM72.0137 390.75C72.6191 390.75 73.1758 390.564 73.6836 390.193C74.1979 389.822 74.5723 389.363 74.8066 388.816V388.094C74.8066 386.909 74.5495 385.945 74.0352 385.203C73.5208 384.461 72.8698 384.09 72.082 384.09C71.2878 384.09 70.6497 384.396 70.168 385.008C69.6862 385.613 69.4453 386.414 69.4453 387.41C69.4453 388.38 69.6764 389.181 70.1387 389.812C70.6074 390.438 71.2324 390.75 72.0137 390.75ZM88.0098 391.697H83.2441V390.223H88.0098V391.697ZM103.869 397H94.5527V395.701L99.4746 390.232C100.204 389.406 100.705 388.735 100.979 388.221C101.258 387.7 101.398 387.163 101.398 386.609C101.398 385.867 101.174 385.258 100.725 384.783C100.275 384.308 99.6764 384.07 98.9277 384.07C98.0293 384.07 97.3294 384.327 96.8281 384.842C96.3333 385.35 96.0859 386.059 96.0859 386.971H94.2793C94.2793 385.662 94.6992 384.604 95.5391 383.797C96.3854 382.99 97.515 382.586 98.9277 382.586C100.249 382.586 101.294 382.934 102.062 383.631C102.831 384.321 103.215 385.242 103.215 386.395C103.215 387.794 102.323 389.461 100.539 391.395L96.7305 395.525H103.869V397ZM114.699 390.936C114.699 393.051 114.338 394.624 113.615 395.652C112.893 396.681 111.763 397.195 110.227 397.195C108.71 397.195 107.587 396.694 106.857 395.691C106.128 394.682 105.751 393.178 105.725 391.18V388.768C105.725 386.678 106.086 385.125 106.809 384.109C107.531 383.094 108.664 382.586 110.207 382.586C111.737 382.586 112.863 383.077 113.586 384.061C114.309 385.037 114.68 386.548 114.699 388.592V390.936ZM112.893 388.465C112.893 386.935 112.678 385.822 112.248 385.125C111.818 384.422 111.138 384.07 110.207 384.07C109.283 384.07 108.609 384.419 108.186 385.115C107.762 385.812 107.544 386.883 107.531 388.328V391.219C107.531 392.755 107.753 393.891 108.195 394.627C108.645 395.356 109.322 395.721 110.227 395.721C111.118 395.721 111.779 395.376 112.209 394.686C112.645 393.995 112.873 392.908 112.893 391.424V388.465ZM126.33 397H117.014V395.701L121.936 390.232C122.665 389.406 123.166 388.735 123.439 388.221C123.719 387.7 123.859 387.163 123.859 386.609C123.859 385.867 123.635 385.258 123.186 384.783C122.736 384.308 122.137 384.07 121.389 384.07C120.49 384.07 119.79 384.327 119.289 384.842C118.794 385.35 118.547 386.059 118.547 386.971H116.74C116.74 385.662 117.16 384.604 118 383.797C118.846 382.99 119.976 382.586 121.389 382.586C122.71 382.586 123.755 382.934 124.523 383.631C125.292 384.321 125.676 385.242 125.676 386.395C125.676 387.794 124.784 389.461 123 391.395L119.191 395.525H126.33V397ZM137.16 390.936C137.16 393.051 136.799 394.624 136.076 395.652C135.354 396.681 134.224 397.195 132.688 397.195C131.171 397.195 130.048 396.694 129.318 395.691C128.589 394.682 128.212 393.178 128.186 391.18V388.768C128.186 386.678 128.547 385.125 129.27 384.109C129.992 383.094 131.125 382.586 132.668 382.586C134.198 382.586 135.324 383.077 136.047 384.061C136.77 385.037 137.141 386.548 137.16 388.592V390.936ZM135.354 388.465C135.354 386.935 135.139 385.822 134.709 385.125C134.279 384.422 133.599 384.07 132.668 384.07C131.743 384.07 131.07 384.419 130.646 385.115C130.223 385.812 130.005 386.883 129.992 388.328V391.219C129.992 392.755 130.214 393.891 130.656 394.627C131.105 395.356 131.783 395.721 132.688 395.721C133.579 395.721 134.24 395.376 134.67 394.686C135.106 393.995 135.334 392.908 135.354 391.424V388.465Z" fill="#C4C4C4"/>
</svg>
