<svg width="798" height="708" viewBox="0 0 798 708" fill="none" xmlns="http://www.w3.org/2000/svg">
<line x1="415" y1="347" x2="415" y2="42" stroke="#6B5EDC" stroke-width="4"/>
<line x1="416" y1="680" x2="416" y2="375" stroke="#6B5EDC" stroke-width="4"/>
<ellipse cx="416.5" cy="21" rx="17.5" ry="21" fill="#6B5EDC"/>
<ellipse cx="418.5" cy="354" rx="17.5" ry="21" fill="#C4C4C4"/>
<path d="M435 354C435 365.598 427.165 375 417.5 375C407.835 375 400 365.598 400 354C400 342.402 407.835 333 417.5 333C427.165 333 435 342.402 435 354Z" fill="#6B5EDC"/>
<path d="M435 687C435 698.598 427.165 708 417.5 708C407.835 708 400 698.598 400 687C400 675.402 407.835 666 417.5 666C427.165 666 435 675.402 435 687Z" fill="#6B5EDC"/>
<path d="M26.5898 27.7422C26.3034 30.776 25.1836 33.1458 23.2305 34.8516C21.2773 36.5443 18.6797 37.3906 15.4375 37.3906C13.1719 37.3906 11.1732 36.8568 9.44141 35.7891C7.72266 34.7083 6.39453 33.1784 5.45703 31.1992C4.51953 29.2201 4.03125 26.9219 3.99219 24.3047V21.6484C3.99219 18.9661 4.46745 16.6029 5.41797 14.5586C6.36849 12.5143 7.72917 10.9388 9.5 9.83203C11.2839 8.72526 13.3411 8.17188 15.6719 8.17188C18.8099 8.17188 21.3359 9.02474 23.25 10.7305C25.1641 12.4362 26.2773 14.8451 26.5898 17.957H21.668C21.4336 15.9128 20.8346 14.4414 19.8711 13.543C18.9206 12.6315 17.5208 12.1758 15.6719 12.1758C13.5234 12.1758 11.8698 12.9635 10.7109 14.5391C9.5651 16.1016 8.97917 18.3997 8.95312 21.4336V23.9531C8.95312 27.026 9.5 29.3698 10.5938 30.9844C11.7005 32.599 13.3151 33.4062 15.4375 33.4062C17.3776 33.4062 18.8359 32.9701 19.8125 32.0977C20.7891 31.2253 21.4076 29.7734 21.668 27.7422H26.5898ZM29.6758 26.2383C29.6758 24.168 30.0859 22.306 30.9062 20.6523C31.7266 18.9857 32.8789 17.7096 34.3633 16.8242C35.8477 15.9258 37.5534 15.4766 39.4805 15.4766C42.332 15.4766 44.6432 16.3945 46.4141 18.2305C48.1979 20.0664 49.1615 22.5013 49.3047 25.5352L49.3242 26.6484C49.3242 28.7318 48.9206 30.5938 48.1133 32.2344C47.319 33.875 46.1732 35.1445 44.6758 36.043C43.1914 36.9414 41.4727 37.3906 39.5195 37.3906C36.5378 37.3906 34.1484 36.401 32.3516 34.4219C30.5677 32.4297 29.6758 29.7799 29.6758 26.4727V26.2383ZM34.4219 26.6484C34.4219 28.8229 34.8711 30.5286 35.7695 31.7656C36.668 32.9896 37.918 33.6016 39.5195 33.6016C41.1211 33.6016 42.3646 32.9766 43.25 31.7266C44.1484 30.4766 44.5977 28.6471 44.5977 26.2383C44.5977 24.1029 44.1354 22.4102 43.2109 21.1602C42.2995 19.9102 41.056 19.2852 39.4805 19.2852C37.931 19.2852 36.7005 19.9036 35.7891 21.1406C34.8776 22.3646 34.4219 24.2005 34.4219 26.6484ZM57.8008 15.8672L57.9375 18.0742C59.4219 16.3424 61.4531 15.4766 64.0312 15.4766C66.8568 15.4766 68.7904 16.5573 69.832 18.7188C71.3685 16.5573 73.5299 15.4766 76.3164 15.4766C78.6471 15.4766 80.3789 16.1211 81.5117 17.4102C82.6576 18.6992 83.2435 20.6003 83.2695 23.1133V37H78.5234V23.25C78.5234 21.9089 78.2305 20.9258 77.6445 20.3008C77.0586 19.6758 76.0885 19.3633 74.7344 19.3633C73.6536 19.3633 72.7682 19.6562 72.0781 20.2422C71.401 20.8151 70.9258 21.5703 70.6523 22.5078L70.6719 37H65.9258V23.0938C65.8607 20.6068 64.5911 19.3633 62.1172 19.3633C60.2161 19.3633 58.8685 20.138 58.0742 21.6875V37H53.3281V15.8672H57.8008ZM106.648 26.6484C106.648 29.9167 105.906 32.5273 104.422 34.4805C102.938 36.4206 100.945 37.3906 98.4453 37.3906C96.1276 37.3906 94.2721 36.6289 92.8789 35.1055V45.125H88.1328V15.8672H92.5078L92.7031 18.0156C94.0964 16.3229 95.9909 15.4766 98.3867 15.4766C100.965 15.4766 102.983 16.4401 104.441 18.3672C105.913 20.2812 106.648 22.944 106.648 26.3555V26.6484ZM101.922 26.2383C101.922 24.1289 101.499 22.4557 100.652 21.2188C99.819 19.9818 98.6211 19.3633 97.0586 19.3633C95.1185 19.3633 93.7253 20.1641 92.8789 21.7656V31.1406C93.7383 32.7812 95.1445 33.6016 97.0977 33.6016C98.6081 33.6016 99.7865 32.9961 100.633 31.7852C101.492 30.5612 101.922 28.7122 101.922 26.2383ZM123.484 34.9297C122.091 36.5703 120.112 37.3906 117.547 37.3906C115.255 37.3906 113.517 36.7201 112.332 35.3789C111.16 34.0378 110.574 32.0977 110.574 29.5586V15.8672H115.32V29.5C115.32 32.1823 116.434 33.5234 118.66 33.5234C120.965 33.5234 122.521 32.6966 123.328 31.043V15.8672H128.074V37H123.602L123.484 34.9297ZM138.855 10.7305V15.8672H142.586V19.3828H138.855V31.1797C138.855 31.987 139.012 32.5729 139.324 32.9375C139.65 33.2891 140.223 33.4648 141.043 33.4648C141.59 33.4648 142.143 33.3997 142.703 33.2695V36.9414C141.622 37.2409 140.581 37.3906 139.578 37.3906C135.932 37.3906 134.109 35.3789 134.109 31.3555V19.3828H130.633V15.8672H134.109V10.7305H138.855ZM155.535 37.3906C152.527 37.3906 150.086 36.4466 148.211 34.5586C146.349 32.6576 145.418 30.1315 145.418 26.9805V26.3945C145.418 24.2852 145.822 22.4036 146.629 20.75C147.449 19.0833 148.595 17.7878 150.066 16.8633C151.538 15.9388 153.178 15.4766 154.988 15.4766C157.866 15.4766 160.086 16.3945 161.648 18.2305C163.224 20.0664 164.012 22.6641 164.012 26.0234V27.9375H150.203C150.346 29.6823 150.926 31.0625 151.941 32.0781C152.97 33.0938 154.259 33.6016 155.809 33.6016C157.983 33.6016 159.754 32.7227 161.121 30.9648L163.68 33.4062C162.833 34.6693 161.701 35.6523 160.281 36.3555C158.875 37.0456 157.293 37.3906 155.535 37.3906ZM154.969 19.2852C153.667 19.2852 152.612 19.7409 151.805 20.6523C151.01 21.5638 150.503 22.8333 150.281 24.4609H159.324V24.1094C159.22 22.5208 158.797 21.3229 158.055 20.5156C157.312 19.6953 156.284 19.2852 154.969 19.2852ZM178.777 20.2031C178.152 20.099 177.508 20.0469 176.844 20.0469C174.669 20.0469 173.204 20.8802 172.449 22.5469V37H167.703V15.8672H172.234L172.352 18.2305C173.497 16.3945 175.086 15.4766 177.117 15.4766C177.794 15.4766 178.354 15.5677 178.797 15.75L178.777 20.2031ZM207.059 29.6758C207.059 28.4258 206.616 27.4622 205.73 26.7852C204.858 26.1081 203.276 25.4245 200.984 24.7344C198.693 24.0443 196.87 23.276 195.516 22.4297C192.924 20.8021 191.629 18.6797 191.629 16.0625C191.629 13.7708 192.56 11.8828 194.422 10.3984C196.297 8.91406 198.725 8.17188 201.707 8.17188C203.686 8.17188 205.451 8.53646 207 9.26562C208.549 9.99479 209.767 11.0365 210.652 12.3906C211.538 13.7318 211.98 15.2227 211.98 16.8633H207.059C207.059 15.3789 206.59 14.2201 205.652 13.3867C204.728 12.5404 203.4 12.1172 201.668 12.1172C200.053 12.1172 198.797 12.4622 197.898 13.1523C197.013 13.8424 196.57 14.806 196.57 16.043C196.57 17.0846 197.052 17.957 198.016 18.6602C198.979 19.3503 200.568 20.0273 202.781 20.6914C204.995 21.3424 206.772 22.0911 208.113 22.9375C209.454 23.7708 210.438 24.7344 211.062 25.8281C211.688 26.9089 212 28.1784 212 29.6367C212 32.0065 211.089 33.8945 209.266 35.3008C207.456 36.694 204.995 37.3906 201.883 37.3906C199.826 37.3906 197.931 37.013 196.199 36.2578C194.48 35.4896 193.139 34.4349 192.176 33.0938C191.225 31.7526 190.75 30.1901 190.75 28.4062H195.691C195.691 30.0208 196.225 31.2708 197.293 32.1562C198.361 33.0417 199.891 33.4844 201.883 33.4844C203.602 33.4844 204.891 33.1393 205.75 32.4492C206.622 31.7461 207.059 30.8216 207.059 29.6758ZM224.559 33.6016C225.743 33.6016 226.727 33.2565 227.508 32.5664C228.289 31.8763 228.706 31.0234 228.758 30.0078H233.23C233.178 31.3229 232.768 32.5534 232 33.6992C231.232 34.832 230.19 35.7305 228.875 36.3945C227.56 37.0586 226.141 37.3906 224.617 37.3906C221.661 37.3906 219.318 36.4336 217.586 34.5195C215.854 32.6055 214.988 29.9622 214.988 26.5898V26.1016C214.988 22.8854 215.848 20.3138 217.566 18.3867C219.285 16.4466 221.629 15.4766 224.598 15.4766C227.111 15.4766 229.155 16.2122 230.73 17.6836C232.319 19.1419 233.152 21.0625 233.23 23.4453H228.758C228.706 22.2344 228.289 21.2383 227.508 20.457C226.74 19.6758 225.757 19.2852 224.559 19.2852C223.022 19.2852 221.837 19.8451 221.004 20.9648C220.171 22.0716 219.747 23.7578 219.734 26.0234V26.7852C219.734 29.0768 220.145 30.7891 220.965 31.9219C221.798 33.0417 222.996 33.6016 224.559 33.6016ZM241.863 37H237.117V15.8672H241.863V37ZM236.824 10.3789C236.824 9.64974 237.052 9.04427 237.508 8.5625C237.977 8.08073 238.641 7.83984 239.5 7.83984C240.359 7.83984 241.023 8.08073 241.492 8.5625C241.961 9.04427 242.195 9.64974 242.195 10.3789C242.195 11.0951 241.961 11.694 241.492 12.1758C241.023 12.6445 240.359 12.8789 239.5 12.8789C238.641 12.8789 237.977 12.6445 237.508 12.1758C237.052 11.694 236.824 11.0951 236.824 10.3789ZM256.355 37.3906C253.348 37.3906 250.906 36.4466 249.031 34.5586C247.169 32.6576 246.238 30.1315 246.238 26.9805V26.3945C246.238 24.2852 246.642 22.4036 247.449 20.75C248.27 19.0833 249.415 17.7878 250.887 16.8633C252.358 15.9388 253.999 15.4766 255.809 15.4766C258.686 15.4766 260.906 16.3945 262.469 18.2305C264.044 20.0664 264.832 22.6641 264.832 26.0234V27.9375H251.023C251.167 29.6823 251.746 31.0625 252.762 32.0781C253.79 33.0938 255.079 33.6016 256.629 33.6016C258.803 33.6016 260.574 32.7227 261.941 30.9648L264.5 33.4062C263.654 34.6693 262.521 35.6523 261.102 36.3555C259.695 37.0456 258.113 37.3906 256.355 37.3906ZM255.789 19.2852C254.487 19.2852 253.432 19.7409 252.625 20.6523C251.831 21.5638 251.323 22.8333 251.102 24.4609H260.145V24.1094C260.04 22.5208 259.617 21.3229 258.875 20.5156C258.133 19.6953 257.104 19.2852 255.789 19.2852ZM272.938 15.8672L273.074 18.3086C274.637 16.4206 276.688 15.4766 279.227 15.4766C283.628 15.4766 285.867 17.9961 285.945 23.0352V37H281.199V23.3086C281.199 21.9674 280.906 20.9779 280.32 20.3398C279.747 19.6888 278.803 19.3633 277.488 19.3633C275.574 19.3633 274.148 20.2292 273.211 21.9609V37H268.465V15.8672H272.938ZM299.48 33.6016C300.665 33.6016 301.648 33.2565 302.43 32.5664C303.211 31.8763 303.628 31.0234 303.68 30.0078H308.152C308.1 31.3229 307.69 32.5534 306.922 33.6992C306.154 34.832 305.112 35.7305 303.797 36.3945C302.482 37.0586 301.062 37.3906 299.539 37.3906C296.583 37.3906 294.24 36.4336 292.508 34.5195C290.776 32.6055 289.91 29.9622 289.91 26.5898V26.1016C289.91 22.8854 290.77 20.3138 292.488 18.3867C294.207 16.4466 296.551 15.4766 299.52 15.4766C302.033 15.4766 304.077 16.2122 305.652 17.6836C307.241 19.1419 308.074 21.0625 308.152 23.4453H303.68C303.628 22.2344 303.211 21.2383 302.43 20.457C301.661 19.6758 300.678 19.2852 299.48 19.2852C297.944 19.2852 296.759 19.8451 295.926 20.9648C295.092 22.0716 294.669 23.7578 294.656 26.0234V26.7852C294.656 29.0768 295.066 30.7891 295.887 31.9219C296.72 33.0417 297.918 33.6016 299.48 33.6016ZM321.043 37.3906C318.035 37.3906 315.594 36.4466 313.719 34.5586C311.857 32.6576 310.926 30.1315 310.926 26.9805V26.3945C310.926 24.2852 311.329 22.4036 312.137 20.75C312.957 19.0833 314.103 17.7878 315.574 16.8633C317.046 15.9388 318.686 15.4766 320.496 15.4766C323.374 15.4766 325.594 16.3945 327.156 18.2305C328.732 20.0664 329.52 22.6641 329.52 26.0234V27.9375H315.711C315.854 29.6823 316.434 31.0625 317.449 32.0781C318.478 33.0938 319.767 33.6016 321.316 33.6016C323.491 33.6016 325.262 32.7227 326.629 30.9648L329.188 33.4062C328.341 34.6693 327.208 35.6523 325.789 36.3555C324.383 37.0456 322.801 37.3906 321.043 37.3906ZM320.477 19.2852C319.174 19.2852 318.12 19.7409 317.312 20.6523C316.518 21.5638 316.01 22.8333 315.789 24.4609H324.832V24.1094C324.728 22.5208 324.305 21.3229 323.562 20.5156C322.82 19.6953 321.792 19.2852 320.477 19.2852Z" fill="black"/>
<path d="M516.469 322H511.547V309.363H498.832V322H493.891V293.562H498.832V305.398H511.547V293.562H516.469V322ZM526.918 322H522.172V300.867H526.918V322ZM521.879 295.379C521.879 294.65 522.107 294.044 522.562 293.562C523.031 293.081 523.695 292.84 524.555 292.84C525.414 292.84 526.078 293.081 526.547 293.562C527.016 294.044 527.25 294.65 527.25 295.379C527.25 296.095 527.016 296.694 526.547 297.176C526.078 297.645 525.414 297.879 524.555 297.879C523.695 297.879 523.031 297.645 522.562 297.176C522.107 296.694 521.879 296.095 521.879 295.379ZM531.273 311.277C531.273 307.996 532.042 305.379 533.578 303.426C535.128 301.46 537.178 300.477 539.73 300.477C542.139 300.477 544.034 301.316 545.414 302.996L545.629 300.867H549.906V321.355C549.906 324.129 549.04 326.316 547.309 327.918C545.59 329.52 543.266 330.32 540.336 330.32C538.786 330.32 537.27 329.995 535.785 329.344C534.314 328.706 533.194 327.866 532.426 326.824L534.672 323.973C536.13 325.704 537.927 326.57 540.062 326.57C541.638 326.57 542.882 326.141 543.793 325.281C544.704 324.435 545.16 323.185 545.16 321.531V320.105C543.793 321.629 541.97 322.391 539.691 322.391C537.217 322.391 535.193 321.408 533.617 319.441C532.055 317.475 531.273 314.754 531.273 311.277ZM536 311.688C536 313.81 536.43 315.483 537.289 316.707C538.161 317.918 539.366 318.523 540.902 318.523C542.816 318.523 544.236 317.703 545.16 316.062V306.766C544.262 305.164 542.855 304.363 540.941 304.363C539.379 304.363 538.161 304.982 537.289 306.219C536.43 307.456 536 309.279 536 311.688ZM559.477 303.172C561.026 301.375 562.986 300.477 565.355 300.477C569.861 300.477 572.146 303.048 572.211 308.191V322H567.465V308.367C567.465 306.909 567.146 305.88 566.508 305.281C565.883 304.669 564.958 304.363 563.734 304.363C561.833 304.363 560.414 305.21 559.477 306.902V322H554.73V292H559.477V303.172ZM602.309 314.676C602.309 313.426 601.866 312.462 600.98 311.785C600.108 311.108 598.526 310.424 596.234 309.734C593.943 309.044 592.12 308.276 590.766 307.43C588.174 305.802 586.879 303.68 586.879 301.062C586.879 298.771 587.81 296.883 589.672 295.398C591.547 293.914 593.975 293.172 596.957 293.172C598.936 293.172 600.701 293.536 602.25 294.266C603.799 294.995 605.017 296.036 605.902 297.391C606.788 298.732 607.23 300.223 607.23 301.863H602.309C602.309 300.379 601.84 299.22 600.902 298.387C599.978 297.54 598.65 297.117 596.918 297.117C595.303 297.117 594.047 297.462 593.148 298.152C592.263 298.842 591.82 299.806 591.82 301.043C591.82 302.085 592.302 302.957 593.266 303.66C594.229 304.35 595.818 305.027 598.031 305.691C600.245 306.342 602.022 307.091 603.363 307.938C604.704 308.771 605.688 309.734 606.312 310.828C606.938 311.909 607.25 313.178 607.25 314.637C607.25 317.007 606.339 318.895 604.516 320.301C602.706 321.694 600.245 322.391 597.133 322.391C595.076 322.391 593.181 322.013 591.449 321.258C589.73 320.49 588.389 319.435 587.426 318.094C586.475 316.753 586 315.19 586 313.406H590.941C590.941 315.021 591.475 316.271 592.543 317.156C593.611 318.042 595.141 318.484 597.133 318.484C598.852 318.484 600.141 318.139 601 317.449C601.872 316.746 602.309 315.822 602.309 314.676ZM619.809 318.602C620.993 318.602 621.977 318.257 622.758 317.566C623.539 316.876 623.956 316.023 624.008 315.008H628.48C628.428 316.323 628.018 317.553 627.25 318.699C626.482 319.832 625.44 320.73 624.125 321.395C622.81 322.059 621.391 322.391 619.867 322.391C616.911 322.391 614.568 321.434 612.836 319.52C611.104 317.605 610.238 314.962 610.238 311.59V311.102C610.238 307.885 611.098 305.314 612.816 303.387C614.535 301.447 616.879 300.477 619.848 300.477C622.361 300.477 624.405 301.212 625.98 302.684C627.569 304.142 628.402 306.062 628.48 308.445H624.008C623.956 307.234 623.539 306.238 622.758 305.457C621.99 304.676 621.007 304.285 619.809 304.285C618.272 304.285 617.087 304.845 616.254 305.965C615.421 307.072 614.997 308.758 614.984 311.023V311.785C614.984 314.077 615.395 315.789 616.215 316.922C617.048 318.042 618.246 318.602 619.809 318.602ZM636.742 303.172C638.292 301.375 640.251 300.477 642.621 300.477C647.126 300.477 649.411 303.048 649.477 308.191V322H644.73V308.367C644.73 306.909 644.411 305.88 643.773 305.281C643.148 304.669 642.224 304.363 641 304.363C639.099 304.363 637.68 305.21 636.742 306.902V322H631.996V292H636.742V303.172ZM653.402 311.238C653.402 309.168 653.812 307.306 654.633 305.652C655.453 303.986 656.605 302.71 658.09 301.824C659.574 300.926 661.28 300.477 663.207 300.477C666.059 300.477 668.37 301.395 670.141 303.23C671.924 305.066 672.888 307.501 673.031 310.535L673.051 311.648C673.051 313.732 672.647 315.594 671.84 317.234C671.046 318.875 669.9 320.145 668.402 321.043C666.918 321.941 665.199 322.391 663.246 322.391C660.264 322.391 657.875 321.401 656.078 319.422C654.294 317.43 653.402 314.78 653.402 311.473V311.238ZM658.148 311.648C658.148 313.823 658.598 315.529 659.496 316.766C660.395 317.99 661.645 318.602 663.246 318.602C664.848 318.602 666.091 317.977 666.977 316.727C667.875 315.477 668.324 313.647 668.324 311.238C668.324 309.103 667.862 307.41 666.938 306.16C666.026 304.91 664.783 304.285 663.207 304.285C661.658 304.285 660.427 304.904 659.516 306.141C658.604 307.365 658.148 309.201 658.148 311.648ZM676.176 311.238C676.176 309.168 676.586 307.306 677.406 305.652C678.227 303.986 679.379 302.71 680.863 301.824C682.348 300.926 684.053 300.477 685.98 300.477C688.832 300.477 691.143 301.395 692.914 303.23C694.698 305.066 695.661 307.501 695.805 310.535L695.824 311.648C695.824 313.732 695.421 315.594 694.613 317.234C693.819 318.875 692.673 320.145 691.176 321.043C689.691 321.941 687.973 322.391 686.02 322.391C683.038 322.391 680.648 321.401 678.852 319.422C677.068 317.43 676.176 314.78 676.176 311.473V311.238ZM680.922 311.648C680.922 313.823 681.371 315.529 682.27 316.766C683.168 317.99 684.418 318.602 686.02 318.602C687.621 318.602 688.865 317.977 689.75 316.727C690.648 315.477 691.098 313.647 691.098 311.238C691.098 309.103 690.635 307.41 689.711 306.16C688.799 304.91 687.556 304.285 685.98 304.285C684.431 304.285 683.201 304.904 682.289 306.141C681.378 307.365 680.922 309.201 680.922 311.648ZM704.887 322H700.141V292H704.887V322Z" fill="black"/>
<path d="M9.29688 579.562L17.5 601.359L25.6836 579.562H32.0703V608H27.1484V598.625L27.6367 586.086L19.2383 608H15.7031L7.32422 586.105L7.8125 598.625V608H2.89062V579.562H9.29688ZM50.0977 608C49.8893 607.596 49.707 606.939 49.5508 606.027C48.0404 607.603 46.1914 608.391 44.0039 608.391C41.8815 608.391 40.1497 607.785 38.8086 606.574C37.4674 605.363 36.7969 603.866 36.7969 602.082C36.7969 599.829 37.6302 598.104 39.2969 596.906C40.9766 595.695 43.3724 595.09 46.4844 595.09H49.3945V593.703C49.3945 592.609 49.0885 591.737 48.4766 591.086C47.8646 590.422 46.9336 590.09 45.6836 590.09C44.6029 590.09 43.7174 590.363 43.0273 590.91C42.3372 591.444 41.9922 592.128 41.9922 592.961H37.2461C37.2461 591.802 37.6302 590.721 38.3984 589.719C39.1667 588.703 40.2083 587.909 41.5234 587.336C42.8516 586.763 44.3294 586.477 45.957 586.477C48.431 586.477 50.4036 587.102 51.875 588.352C53.3464 589.589 54.1016 591.333 54.1406 593.586V603.117C54.1406 605.018 54.4076 606.535 54.9414 607.668V608H50.0977ZM44.8828 604.582C45.8203 604.582 46.6992 604.354 47.5195 603.898C48.3529 603.443 48.9779 602.831 49.3945 602.062V598.078H46.8359C45.0781 598.078 43.7565 598.384 42.8711 598.996C41.9857 599.608 41.543 600.474 41.543 601.594C41.543 602.505 41.8424 603.234 42.4414 603.781C43.0534 604.315 43.8672 604.582 44.8828 604.582ZM65.0586 581.73V586.867H68.7891V590.383H65.0586V602.18C65.0586 602.987 65.2148 603.573 65.5273 603.938C65.8529 604.289 66.4258 604.465 67.2461 604.465C67.793 604.465 68.3464 604.4 68.9062 604.27V607.941C67.8255 608.241 66.7839 608.391 65.7812 608.391C62.1354 608.391 60.3125 606.379 60.3125 602.355V590.383H56.8359V586.867H60.3125V581.73H65.0586ZM83.4961 591.203C82.8711 591.099 82.2266 591.047 81.5625 591.047C79.388 591.047 77.9232 591.88 77.168 593.547V608H72.4219V586.867H76.9531L77.0703 589.23C78.2161 587.395 79.8047 586.477 81.8359 586.477C82.513 586.477 83.0729 586.568 83.5156 586.75L83.4961 591.203ZM91.543 608H86.7969V586.867H91.543V608ZM86.5039 581.379C86.5039 580.65 86.7318 580.044 87.1875 579.562C87.6562 579.081 88.3203 578.84 89.1797 578.84C90.0391 578.84 90.7031 579.081 91.1719 579.562C91.6406 580.044 91.875 580.65 91.875 581.379C91.875 582.095 91.6406 582.694 91.1719 583.176C90.7031 583.645 90.0391 583.879 89.1797 583.879C88.3203 583.879 87.6562 583.645 87.1875 583.176C86.7318 582.694 86.5039 582.095 86.5039 581.379ZM105.41 604.602C106.595 604.602 107.578 604.257 108.359 603.566C109.141 602.876 109.557 602.023 109.609 601.008H114.082C114.03 602.323 113.62 603.553 112.852 604.699C112.083 605.832 111.042 606.73 109.727 607.395C108.411 608.059 106.992 608.391 105.469 608.391C102.513 608.391 100.169 607.434 98.4375 605.52C96.7057 603.605 95.8398 600.962 95.8398 597.59V597.102C95.8398 593.885 96.6992 591.314 98.418 589.387C100.137 587.447 102.48 586.477 105.449 586.477C107.962 586.477 110.007 587.212 111.582 588.684C113.171 590.142 114.004 592.062 114.082 594.445H109.609C109.557 593.234 109.141 592.238 108.359 591.457C107.591 590.676 106.608 590.285 105.41 590.285C103.874 590.285 102.689 590.845 101.855 591.965C101.022 593.072 100.599 594.758 100.586 597.023V597.785C100.586 600.077 100.996 601.789 101.816 602.922C102.65 604.042 103.848 604.602 105.41 604.602ZM130.469 605.93C129.076 607.57 127.096 608.391 124.531 608.391C122.24 608.391 120.501 607.72 119.316 606.379C118.145 605.038 117.559 603.098 117.559 600.559V586.867H122.305V600.5C122.305 603.182 123.418 604.523 125.645 604.523C127.949 604.523 129.505 603.697 130.312 602.043V586.867H135.059V608H130.586L130.469 605.93ZM144.941 608H140.195V578H144.941V608ZM162.754 608C162.546 607.596 162.363 606.939 162.207 606.027C160.697 607.603 158.848 608.391 156.66 608.391C154.538 608.391 152.806 607.785 151.465 606.574C150.124 605.363 149.453 603.866 149.453 602.082C149.453 599.829 150.286 598.104 151.953 596.906C153.633 595.695 156.029 595.09 159.141 595.09H162.051V593.703C162.051 592.609 161.745 591.737 161.133 591.086C160.521 590.422 159.59 590.09 158.34 590.09C157.259 590.09 156.374 590.363 155.684 590.91C154.993 591.444 154.648 592.128 154.648 592.961H149.902C149.902 591.802 150.286 590.721 151.055 589.719C151.823 588.703 152.865 587.909 154.18 587.336C155.508 586.763 156.986 586.477 158.613 586.477C161.087 586.477 163.06 587.102 164.531 588.352C166.003 589.589 166.758 591.333 166.797 593.586V603.117C166.797 605.018 167.064 606.535 167.598 607.668V608H162.754ZM157.539 604.582C158.477 604.582 159.355 604.354 160.176 603.898C161.009 603.443 161.634 602.831 162.051 602.062V598.078H159.492C157.734 598.078 156.413 598.384 155.527 598.996C154.642 599.608 154.199 600.474 154.199 601.594C154.199 602.505 154.499 603.234 155.098 603.781C155.71 604.315 156.523 604.582 157.539 604.582ZM177.715 581.73V586.867H181.445V590.383H177.715V602.18C177.715 602.987 177.871 603.573 178.184 603.938C178.509 604.289 179.082 604.465 179.902 604.465C180.449 604.465 181.003 604.4 181.562 604.27V607.941C180.482 608.241 179.44 608.391 178.438 608.391C174.792 608.391 172.969 606.379 172.969 602.355V590.383H169.492V586.867H172.969V581.73H177.715ZM190.137 608H185.391V586.867H190.137V608ZM185.098 581.379C185.098 580.65 185.326 580.044 185.781 579.562C186.25 579.081 186.914 578.84 187.773 578.84C188.633 578.84 189.297 579.081 189.766 579.562C190.234 580.044 190.469 580.65 190.469 581.379C190.469 582.095 190.234 582.694 189.766 583.176C189.297 583.645 188.633 583.879 187.773 583.879C186.914 583.879 186.25 583.645 185.781 583.176C185.326 582.694 185.098 582.095 185.098 581.379ZM194.434 597.238C194.434 595.168 194.844 593.306 195.664 591.652C196.484 589.986 197.637 588.71 199.121 587.824C200.605 586.926 202.311 586.477 204.238 586.477C207.09 586.477 209.401 587.395 211.172 589.23C212.956 591.066 213.919 593.501 214.062 596.535L214.082 597.648C214.082 599.732 213.678 601.594 212.871 603.234C212.077 604.875 210.931 606.145 209.434 607.043C207.949 607.941 206.23 608.391 204.277 608.391C201.296 608.391 198.906 607.401 197.109 605.422C195.326 603.43 194.434 600.78 194.434 597.473V597.238ZM199.18 597.648C199.18 599.823 199.629 601.529 200.527 602.766C201.426 603.99 202.676 604.602 204.277 604.602C205.879 604.602 207.122 603.977 208.008 602.727C208.906 601.477 209.355 599.647 209.355 597.238C209.355 595.103 208.893 593.41 207.969 592.16C207.057 590.91 205.814 590.285 204.238 590.285C202.689 590.285 201.458 590.904 200.547 592.141C199.635 593.365 199.18 595.201 199.18 597.648ZM222.5 586.867L222.637 589.309C224.199 587.421 226.25 586.477 228.789 586.477C233.19 586.477 235.43 588.996 235.508 594.035V608H230.762V594.309C230.762 592.967 230.469 591.978 229.883 591.34C229.31 590.689 228.366 590.363 227.051 590.363C225.137 590.363 223.711 591.229 222.773 592.961V608H218.027V586.867H222.5Z" fill="black"/>
<path d="M17.1875 75.9531H7.64062V86H4.64062V63.25H18.7344V65.7188H7.64062V73.5H17.1875V75.9531ZM31.7812 86C31.6146 85.6667 31.4792 85.0729 31.375 84.2188C30.0312 85.6146 28.4271 86.3125 26.5625 86.3125C24.8958 86.3125 23.526 85.8438 22.4531 84.9062C21.3906 83.9583 20.8594 82.7604 20.8594 81.3125C20.8594 79.5521 21.526 78.1875 22.8594 77.2188C24.2031 76.2396 26.0885 75.75 28.5156 75.75H31.3281V74.4219C31.3281 73.4115 31.026 72.6094 30.4219 72.0156C29.8177 71.4115 28.9271 71.1094 27.75 71.1094C26.7188 71.1094 25.8542 71.3698 25.1562 71.8906C24.4583 72.4115 24.1094 73.0417 24.1094 73.7812H21.2031C21.2031 72.9375 21.5 72.125 22.0938 71.3438C22.6979 70.5521 23.5104 69.9271 24.5312 69.4688C25.5625 69.0104 26.6927 68.7812 27.9219 68.7812C29.8698 68.7812 31.3958 69.2708 32.5 70.25C33.6042 71.2188 34.1771 72.5573 34.2188 74.2656V82.0469C34.2188 83.599 34.4167 84.8333 34.8125 85.75V86H31.7812ZM26.9844 83.7969C27.8906 83.7969 28.75 83.5625 29.5625 83.0938C30.375 82.625 30.9635 82.0156 31.3281 81.2656V77.7969H29.0625C25.5208 77.7969 23.75 78.8333 23.75 80.9062C23.75 81.8125 24.0521 82.5208 24.6562 83.0312C25.2604 83.5417 26.0365 83.7969 26.9844 83.7969ZM48.5938 81.5156C48.5938 80.7344 48.2969 80.1302 47.7031 79.7031C47.1198 79.2656 46.0938 78.8906 44.625 78.5781C43.1667 78.2656 42.0052 77.8906 41.1406 77.4531C40.2865 77.0156 39.651 76.4948 39.2344 75.8906C38.8281 75.2865 38.625 74.5677 38.625 73.7344C38.625 72.349 39.2083 71.1771 40.375 70.2188C41.5521 69.2604 43.0521 68.7812 44.875 68.7812C46.7917 68.7812 48.3438 69.276 49.5312 70.2656C50.7292 71.2552 51.3281 72.5208 51.3281 74.0625H48.4219C48.4219 73.2708 48.0833 72.5885 47.4062 72.0156C46.7396 71.4427 45.8958 71.1562 44.875 71.1562C43.8229 71.1562 43 71.3854 42.4062 71.8438C41.8125 72.3021 41.5156 72.901 41.5156 73.6406C41.5156 74.3385 41.7917 74.8646 42.3438 75.2188C42.8958 75.5729 43.8906 75.9115 45.3281 76.2344C46.776 76.5573 47.9479 76.9427 48.8438 77.3906C49.7396 77.8385 50.401 78.3802 50.8281 79.0156C51.2656 79.6406 51.4844 80.4062 51.4844 81.3125C51.4844 82.8229 50.8802 84.0365 49.6719 84.9531C48.4635 85.8594 46.8958 86.3125 44.9688 86.3125C43.6146 86.3125 42.4167 86.0729 41.375 85.5938C40.3333 85.1146 39.5156 84.4479 38.9219 83.5938C38.3385 82.7292 38.0469 81.7969 38.0469 80.7969H40.9375C40.9896 81.7656 41.375 82.5365 42.0938 83.1094C42.8229 83.6719 43.7812 83.9531 44.9688 83.9531C46.0625 83.9531 46.9375 83.7344 47.5938 83.2969C48.2604 82.849 48.5938 82.2552 48.5938 81.5156ZM59.1719 65V69.0938H62.3281V71.3281H59.1719V81.8125C59.1719 82.4896 59.3125 83 59.5938 83.3438C59.875 83.6771 60.3542 83.8438 61.0312 83.8438C61.3646 83.8438 61.8229 83.7812 62.4062 83.6562V86C61.6458 86.2083 60.9062 86.3125 60.1875 86.3125C58.8958 86.3125 57.9219 85.9219 57.2656 85.1406C56.6094 84.3594 56.2812 83.25 56.2812 81.8125V71.3281H53.2031V69.0938H56.2812V65H59.1719ZM91.5938 86H88.5781L77.125 68.4688V86H74.1094V63.25H77.125L88.6094 80.8594V63.25H91.5938V86ZM112.938 63.25V78.7188C112.927 80.8646 112.25 82.6198 110.906 83.9844C109.573 85.349 107.76 86.1146 105.469 86.2812L104.672 86.3125C102.182 86.3125 100.198 85.6406 98.7188 84.2969C97.2396 82.9531 96.4896 81.1042 96.4688 78.75V63.25H99.4375V78.6562C99.4375 80.3021 99.8906 81.5833 100.797 82.5C101.703 83.4062 102.995 83.8594 104.672 83.8594C106.37 83.8594 107.667 83.4062 108.562 82.5C109.469 81.5938 109.922 80.3177 109.922 78.6719V63.25H112.938ZM131.172 77.5156H123.547V75.1562H131.172V77.5156ZM148.172 75.4219L145.391 78.3125V86H142.391V63.25H145.391V74.5L155.5 63.25H159.125L150.172 73.2969L159.828 86H156.234L148.172 75.4219ZM172.438 86C172.271 85.6667 172.135 85.0729 172.031 84.2188C170.688 85.6146 169.083 86.3125 167.219 86.3125C165.552 86.3125 164.182 85.8438 163.109 84.9062C162.047 83.9583 161.516 82.7604 161.516 81.3125C161.516 79.5521 162.182 78.1875 163.516 77.2188C164.859 76.2396 166.745 75.75 169.172 75.75H171.984V74.4219C171.984 73.4115 171.682 72.6094 171.078 72.0156C170.474 71.4115 169.583 71.1094 168.406 71.1094C167.375 71.1094 166.51 71.3698 165.812 71.8906C165.115 72.4115 164.766 73.0417 164.766 73.7812H161.859C161.859 72.9375 162.156 72.125 162.75 71.3438C163.354 70.5521 164.167 69.9271 165.188 69.4688C166.219 69.0104 167.349 68.7812 168.578 68.7812C170.526 68.7812 172.052 69.2708 173.156 70.25C174.26 71.2188 174.833 72.5573 174.875 74.2656V82.0469C174.875 83.599 175.073 84.8333 175.469 85.75V86H172.438ZM167.641 83.7969C168.547 83.7969 169.406 83.5625 170.219 83.0938C171.031 82.625 171.62 82.0156 171.984 81.2656V77.7969H169.719C166.177 77.7969 164.406 78.8333 164.406 80.9062C164.406 81.8125 164.708 82.5208 165.312 83.0312C165.917 83.5417 166.693 83.7969 167.641 83.7969ZM187.578 71.6875C187.141 71.6146 186.667 71.5781 186.156 71.5781C184.26 71.5781 182.974 72.3854 182.297 74V86H179.406V69.0938H182.219L182.266 71.0469C183.214 69.5365 184.557 68.7812 186.297 68.7812C186.859 68.7812 187.286 68.8542 187.578 69V71.6875ZM200.062 86C199.896 85.6667 199.76 85.0729 199.656 84.2188C198.312 85.6146 196.708 86.3125 194.844 86.3125C193.177 86.3125 191.807 85.8438 190.734 84.9062C189.672 83.9583 189.141 82.7604 189.141 81.3125C189.141 79.5521 189.807 78.1875 191.141 77.2188C192.484 76.2396 194.37 75.75 196.797 75.75H199.609V74.4219C199.609 73.4115 199.307 72.6094 198.703 72.0156C198.099 71.4115 197.208 71.1094 196.031 71.1094C195 71.1094 194.135 71.3698 193.438 71.8906C192.74 72.4115 192.391 73.0417 192.391 73.7812H189.484C189.484 72.9375 189.781 72.125 190.375 71.3438C190.979 70.5521 191.792 69.9271 192.812 69.4688C193.844 69.0104 194.974 68.7812 196.203 68.7812C198.151 68.7812 199.677 69.2708 200.781 70.25C201.885 71.2188 202.458 72.5573 202.5 74.2656V82.0469C202.5 83.599 202.698 84.8333 203.094 85.75V86H200.062ZM195.266 83.7969C196.172 83.7969 197.031 83.5625 197.844 83.0938C198.656 82.625 199.245 82.0156 199.609 81.2656V77.7969H197.344C193.802 77.7969 192.031 78.8333 192.031 80.9062C192.031 81.8125 192.333 82.5208 192.938 83.0312C193.542 83.5417 194.318 83.7969 195.266 83.7969ZM213.812 83.9531C214.844 83.9531 215.745 83.6406 216.516 83.0156C217.286 82.3906 217.714 81.6094 217.797 80.6719H220.531C220.479 81.6406 220.146 82.5625 219.531 83.4375C218.917 84.3125 218.094 85.0104 217.062 85.5312C216.042 86.0521 214.958 86.3125 213.812 86.3125C211.51 86.3125 209.677 85.5469 208.312 84.0156C206.958 82.474 206.281 80.3698 206.281 77.7031V77.2188C206.281 75.5729 206.583 74.1094 207.188 72.8281C207.792 71.5469 208.656 70.5521 209.781 69.8438C210.917 69.1354 212.255 68.7812 213.797 68.7812C215.693 68.7812 217.266 69.349 218.516 70.4844C219.776 71.6198 220.448 73.0938 220.531 74.9062H217.797C217.714 73.8125 217.297 72.9167 216.547 72.2188C215.807 71.5104 214.891 71.1562 213.797 71.1562C212.328 71.1562 211.188 71.6875 210.375 72.75C209.573 73.8021 209.172 75.3281 209.172 77.3281V77.875C209.172 79.8229 209.573 81.3229 210.375 82.375C211.177 83.4271 212.323 83.9531 213.812 83.9531ZM226.672 71.1406C227.953 69.5677 229.62 68.7812 231.672 68.7812C235.245 68.7812 237.047 70.7969 237.078 74.8281V86H234.188V74.8125C234.177 73.5938 233.896 72.6927 233.344 72.1094C232.802 71.526 231.953 71.2344 230.797 71.2344C229.859 71.2344 229.036 71.4844 228.328 71.9844C227.62 72.4844 227.068 73.1406 226.672 73.9531V86H223.781V62H226.672V71.1406ZM244.547 86H241.656V69.0938H244.547V86ZM241.422 64.6094C241.422 64.1406 241.562 63.7448 241.844 63.4219C242.135 63.099 242.562 62.9375 243.125 62.9375C243.688 62.9375 244.115 63.099 244.406 63.4219C244.698 63.7448 244.844 64.1406 244.844 64.6094C244.844 65.0781 244.698 65.4688 244.406 65.7812C244.115 66.0938 243.688 66.25 243.125 66.25C242.562 66.25 242.135 66.0938 241.844 65.7812C241.562 65.4688 241.422 65.0781 241.422 64.6094Z" fill="#7A777B"/>
<path d="M510.375 363.781C510.094 366.188 509.203 368.047 507.703 369.359C506.214 370.661 504.229 371.312 501.75 371.312C499.062 371.312 496.906 370.349 495.281 368.422C493.667 366.495 492.859 363.917 492.859 360.688V358.5C492.859 356.385 493.234 354.526 493.984 352.922C494.745 351.318 495.818 350.089 497.203 349.234C498.589 348.37 500.193 347.938 502.016 347.938C504.432 347.938 506.37 348.615 507.828 349.969C509.286 351.312 510.135 353.177 510.375 355.562H507.359C507.099 353.75 506.531 352.438 505.656 351.625C504.792 350.812 503.578 350.406 502.016 350.406C500.099 350.406 498.594 351.115 497.5 352.531C496.417 353.948 495.875 355.964 495.875 358.578V360.781C495.875 363.25 496.391 365.214 497.422 366.672C498.453 368.13 499.896 368.859 501.75 368.859C503.417 368.859 504.693 368.484 505.578 367.734C506.474 366.974 507.068 365.656 507.359 363.781H510.375ZM511.986 362.391C511.986 360.734 512.309 359.245 512.954 357.922C513.611 356.599 514.517 355.578 515.673 354.859C516.84 354.141 518.168 353.781 519.657 353.781C521.96 353.781 523.819 354.578 525.236 356.172C526.663 357.766 527.376 359.885 527.376 362.531V362.734C527.376 364.38 527.059 365.859 526.423 367.172C525.798 368.474 524.897 369.49 523.72 370.219C522.553 370.948 521.21 371.312 519.689 371.312C517.397 371.312 515.538 370.516 514.111 368.922C512.694 367.328 511.986 365.219 511.986 362.594V362.391ZM514.892 362.734C514.892 364.609 515.324 366.115 516.189 367.25C517.064 368.385 518.23 368.953 519.689 368.953C521.157 368.953 522.324 368.38 523.189 367.234C524.053 366.078 524.486 364.464 524.486 362.391C524.486 360.536 524.043 359.036 523.157 357.891C522.282 356.734 521.116 356.156 519.657 356.156C518.23 356.156 517.079 356.724 516.204 357.859C515.329 358.995 514.892 360.62 514.892 362.734ZM532.44 354.094L532.518 355.969C533.758 354.51 535.43 353.781 537.534 353.781C539.898 353.781 541.508 354.688 542.362 356.5C542.924 355.688 543.654 355.031 544.549 354.531C545.456 354.031 546.523 353.781 547.752 353.781C551.461 353.781 553.346 355.745 553.409 359.672V371H550.518V359.844C550.518 358.635 550.242 357.734 549.69 357.141C549.138 356.536 548.211 356.234 546.909 356.234C545.836 356.234 544.945 356.557 544.237 357.203C543.529 357.839 543.117 358.698 543.002 359.781V371H540.096V359.922C540.096 357.464 538.893 356.234 536.487 356.234C534.591 356.234 533.294 357.042 532.596 358.656V371H529.706V354.094H532.44ZM559.222 354.094L559.301 355.969C560.54 354.51 562.212 353.781 564.316 353.781C566.681 353.781 568.29 354.688 569.144 356.5C569.707 355.688 570.436 355.031 571.332 354.531C572.238 354.031 573.306 353.781 574.535 353.781C578.243 353.781 580.129 355.745 580.191 359.672V371H577.301V359.844C577.301 358.635 577.025 357.734 576.472 357.141C575.92 356.536 574.993 356.234 573.691 356.234C572.618 356.234 571.728 356.557 571.019 357.203C570.311 357.839 569.9 358.698 569.785 359.781V371H566.879V359.922C566.879 357.464 565.676 356.234 563.269 356.234C561.374 356.234 560.077 357.042 559.379 358.656V371H556.488V354.094H559.222ZM590.302 371.312C588.01 371.312 586.146 370.562 584.708 369.062C583.271 367.552 582.552 365.536 582.552 363.016V362.484C582.552 360.807 582.87 359.312 583.505 358C584.151 356.677 585.047 355.646 586.192 354.906C587.349 354.156 588.599 353.781 589.942 353.781C592.14 353.781 593.849 354.505 595.067 355.953C596.286 357.401 596.896 359.474 596.896 362.172V363.375H585.442C585.484 365.042 585.969 366.391 586.896 367.422C587.833 368.443 589.021 368.953 590.458 368.953C591.479 368.953 592.344 368.745 593.052 368.328C593.76 367.911 594.38 367.359 594.911 366.672L596.677 368.047C595.26 370.224 593.135 371.312 590.302 371.312ZM589.942 356.156C588.776 356.156 587.797 356.583 587.005 357.438C586.213 358.281 585.724 359.469 585.536 361H594.005V360.781C593.922 359.312 593.526 358.177 592.817 357.375C592.109 356.562 591.151 356.156 589.942 356.156ZM605.756 368.953C606.787 368.953 607.689 368.641 608.459 368.016C609.23 367.391 609.657 366.609 609.741 365.672H612.475C612.423 366.641 612.09 367.562 611.475 368.438C610.86 369.312 610.037 370.01 609.006 370.531C607.985 371.052 606.902 371.312 605.756 371.312C603.454 371.312 601.621 370.547 600.256 369.016C598.902 367.474 598.225 365.37 598.225 362.703V362.219C598.225 360.573 598.527 359.109 599.131 357.828C599.735 356.547 600.6 355.552 601.725 354.844C602.86 354.135 604.199 353.781 605.741 353.781C607.636 353.781 609.209 354.349 610.459 355.484C611.72 356.62 612.392 358.094 612.475 359.906H609.741C609.657 358.812 609.241 357.917 608.491 357.219C607.751 356.51 606.834 356.156 605.741 356.156C604.272 356.156 603.131 356.688 602.319 357.75C601.517 358.802 601.116 360.328 601.116 362.328V362.875C601.116 364.823 601.517 366.323 602.319 367.375C603.121 368.427 604.267 368.953 605.756 368.953ZM624.289 366.516C624.289 365.734 623.992 365.13 623.398 364.703C622.815 364.266 621.789 363.891 620.32 363.578C618.862 363.266 617.7 362.891 616.836 362.453C615.981 362.016 615.346 361.495 614.929 360.891C614.523 360.286 614.32 359.568 614.32 358.734C614.32 357.349 614.903 356.177 616.07 355.219C617.247 354.26 618.747 353.781 620.57 353.781C622.487 353.781 624.039 354.276 625.226 355.266C626.424 356.255 627.023 357.521 627.023 359.062H624.117C624.117 358.271 623.778 357.589 623.101 357.016C622.435 356.443 621.591 356.156 620.57 356.156C619.518 356.156 618.695 356.385 618.101 356.844C617.507 357.302 617.211 357.901 617.211 358.641C617.211 359.339 617.487 359.865 618.039 360.219C618.591 360.573 619.586 360.911 621.023 361.234C622.471 361.557 623.643 361.943 624.539 362.391C625.435 362.839 626.096 363.38 626.523 364.016C626.961 364.641 627.179 365.406 627.179 366.312C627.179 367.823 626.575 369.036 625.367 369.953C624.159 370.859 622.591 371.312 620.664 371.312C619.31 371.312 618.112 371.073 617.07 370.594C616.028 370.115 615.211 369.448 614.617 368.594C614.034 367.729 613.742 366.797 613.742 365.797H616.632C616.685 366.766 617.07 367.536 617.789 368.109C618.518 368.672 619.476 368.953 620.664 368.953C621.757 368.953 622.632 368.734 623.289 368.297C623.955 367.849 624.289 367.255 624.289 366.516ZM653.51 363.781C653.229 366.188 652.338 368.047 650.838 369.359C649.349 370.661 647.364 371.312 644.885 371.312C642.197 371.312 640.041 370.349 638.416 368.422C636.802 366.495 635.994 363.917 635.994 360.688V358.5C635.994 356.385 636.369 354.526 637.119 352.922C637.88 351.318 638.953 350.089 640.338 349.234C641.724 348.37 643.328 347.938 645.151 347.938C647.567 347.938 649.505 348.615 650.963 349.969C652.421 351.312 653.27 353.177 653.51 355.562H650.494C650.234 353.75 649.666 352.438 648.791 351.625C647.927 350.812 646.713 350.406 645.151 350.406C643.234 350.406 641.729 351.115 640.635 352.531C639.552 353.948 639.01 355.964 639.01 358.578V360.781C639.01 363.25 639.526 365.214 640.557 366.672C641.588 368.13 643.031 368.859 644.885 368.859C646.552 368.859 647.828 368.484 648.713 367.734C649.609 366.974 650.203 365.656 650.494 363.781H653.51ZM659.027 371H656.136V347H659.027V371ZM661.7 362.406C661.7 359.771 662.309 357.677 663.528 356.125C664.747 354.562 666.361 353.781 668.372 353.781C670.434 353.781 672.044 354.51 673.2 355.969L673.341 354.094H675.981V370.594C675.981 372.781 675.33 374.505 674.028 375.766C672.736 377.026 670.997 377.656 668.809 377.656C667.591 377.656 666.398 377.396 665.231 376.875C664.065 376.354 663.174 375.641 662.559 374.734L664.059 373C665.299 374.531 666.815 375.297 668.606 375.297C670.012 375.297 671.106 374.901 671.887 374.109C672.679 373.318 673.075 372.203 673.075 370.766V369.312C671.919 370.646 670.341 371.312 668.341 371.312C666.361 371.312 664.757 370.516 663.528 368.922C662.309 367.328 661.7 365.156 661.7 362.406ZM664.606 362.734C664.606 364.641 664.997 366.141 665.778 367.234C666.559 368.318 667.653 368.859 669.059 368.859C670.882 368.859 672.221 368.031 673.075 366.375V358.656C672.19 357.042 670.861 356.234 669.091 356.234C667.684 356.234 666.585 356.781 665.794 357.875C665.002 358.969 664.606 360.589 664.606 362.734ZM691.749 362.516H684.124V360.156H691.749V362.516ZM706.189 360.422L703.408 363.312V371H700.408V348.25H703.408V359.5L713.518 348.25H717.143L708.189 358.297L717.846 371H714.252L706.189 360.422ZM729.175 371C729.008 370.667 728.873 370.073 728.769 369.219C727.425 370.615 725.821 371.312 723.956 371.312C722.29 371.312 720.92 370.844 719.847 369.906C718.784 368.958 718.253 367.76 718.253 366.312C718.253 364.552 718.92 363.188 720.253 362.219C721.597 361.24 723.482 360.75 725.909 360.75H728.722V359.422C728.722 358.411 728.42 357.609 727.816 357.016C727.211 356.411 726.321 356.109 725.144 356.109C724.113 356.109 723.248 356.37 722.55 356.891C721.852 357.411 721.503 358.042 721.503 358.781H718.597C718.597 357.938 718.894 357.125 719.488 356.344C720.092 355.552 720.904 354.927 721.925 354.469C722.956 354.01 724.086 353.781 725.316 353.781C727.264 353.781 728.79 354.271 729.894 355.25C730.998 356.219 731.571 357.557 731.613 359.266V367.047C731.613 368.599 731.81 369.833 732.206 370.75V371H729.175ZM724.378 368.797C725.284 368.797 726.144 368.562 726.956 368.094C727.769 367.625 728.357 367.016 728.722 366.266V362.797H726.456C722.915 362.797 721.144 363.833 721.144 365.906C721.144 366.812 721.446 367.521 722.05 368.031C722.654 368.542 723.43 368.797 724.378 368.797ZM743.036 356.688C742.598 356.615 742.124 356.578 741.614 356.578C739.718 356.578 738.431 357.385 737.754 359V371H734.864V354.094H737.676L737.723 356.047C738.671 354.536 740.015 353.781 741.754 353.781C742.317 353.781 742.744 353.854 743.036 354V356.688ZM754.24 371C754.073 370.667 753.938 370.073 753.834 369.219C752.49 370.615 750.886 371.312 749.021 371.312C747.355 371.312 745.985 370.844 744.912 369.906C743.849 368.958 743.318 367.76 743.318 366.312C743.318 364.552 743.985 363.188 745.318 362.219C746.662 361.24 748.547 360.75 750.974 360.75H753.787V359.422C753.787 358.411 753.485 357.609 752.881 357.016C752.276 356.411 751.386 356.109 750.209 356.109C749.178 356.109 748.313 356.37 747.615 356.891C746.917 357.411 746.568 358.042 746.568 358.781H743.662C743.662 357.938 743.959 357.125 744.553 356.344C745.157 355.552 745.969 354.927 746.99 354.469C748.021 354.01 749.151 353.781 750.381 353.781C752.329 353.781 753.855 354.271 754.959 355.25C756.063 356.219 756.636 357.557 756.678 359.266V367.047C756.678 368.599 756.875 369.833 757.271 370.75V371H754.24ZM749.443 368.797C750.349 368.797 751.209 368.562 752.021 368.094C752.834 367.625 753.422 367.016 753.787 366.266V362.797H751.521C747.98 362.797 746.209 363.833 746.209 365.906C746.209 366.812 746.511 367.521 747.115 368.031C747.719 368.542 748.495 368.797 749.443 368.797ZM766.71 368.953C767.741 368.953 768.642 368.641 769.413 368.016C770.184 367.391 770.611 366.609 770.694 365.672H773.429C773.377 366.641 773.043 367.562 772.429 368.438C771.814 369.312 770.991 370.01 769.96 370.531C768.939 371.052 767.856 371.312 766.71 371.312C764.408 371.312 762.575 370.547 761.21 369.016C759.856 367.474 759.179 365.37 759.179 362.703V362.219C759.179 360.573 759.481 359.109 760.085 357.828C760.689 356.547 761.554 355.552 762.679 354.844C763.814 354.135 765.153 353.781 766.694 353.781C768.59 353.781 770.163 354.349 771.413 355.484C772.674 356.62 773.345 358.094 773.429 359.906H770.694C770.611 358.812 770.194 357.917 769.444 357.219C768.705 356.51 767.788 356.156 766.694 356.156C765.226 356.156 764.085 356.688 763.272 357.75C762.47 358.802 762.069 360.328 762.069 362.328V362.875C762.069 364.823 762.47 366.323 763.272 367.375C764.075 368.427 765.22 368.953 766.71 368.953ZM778.289 356.141C779.571 354.568 781.237 353.781 783.289 353.781C786.862 353.781 788.664 355.797 788.696 359.828V371H785.805V359.812C785.795 358.594 785.513 357.693 784.961 357.109C784.42 356.526 783.571 356.234 782.414 356.234C781.477 356.234 780.654 356.484 779.946 356.984C779.237 357.484 778.685 358.141 778.289 358.953V371H775.399V347H778.289V356.141ZM794.884 371H791.994V354.094H794.884V371ZM791.759 349.609C791.759 349.141 791.9 348.745 792.181 348.422C792.473 348.099 792.9 347.938 793.462 347.938C794.025 347.938 794.452 348.099 794.744 348.422C795.035 348.745 795.181 349.141 795.181 349.609C795.181 350.078 795.035 350.469 794.744 350.781C794.452 351.094 794.025 351.25 793.462 351.25C792.9 351.25 792.473 351.094 792.181 350.781C791.9 350.469 791.759 350.078 791.759 349.609Z" fill="#7A777B"/>
<path d="M19.375 649.781C19.0938 652.188 18.2031 654.047 16.7031 655.359C15.2135 656.661 13.2292 657.312 10.75 657.312C8.0625 657.312 5.90625 656.349 4.28125 654.422C2.66667 652.495 1.85938 649.917 1.85938 646.688V644.5C1.85938 642.385 2.23438 640.526 2.98438 638.922C3.74479 637.318 4.81771 636.089 6.20312 635.234C7.58854 634.37 9.19271 633.938 11.0156 633.938C13.4323 633.938 15.3698 634.615 16.8281 635.969C18.2865 637.312 19.1354 639.177 19.375 641.562H16.3594C16.099 639.75 15.5312 638.438 14.6562 637.625C13.7917 636.812 12.5781 636.406 11.0156 636.406C9.09896 636.406 7.59375 637.115 6.5 638.531C5.41667 639.948 4.875 641.964 4.875 644.578V646.781C4.875 649.25 5.39062 651.214 6.42188 652.672C7.45312 654.13 8.89583 654.859 10.75 654.859C12.4167 654.859 13.6927 654.484 14.5781 653.734C15.474 652.974 16.0677 651.656 16.3594 649.781H19.375ZM36.0469 651.062H26.5156L24.375 657H21.2812L29.9688 634.25H32.5938L41.2969 657H38.2188L36.0469 651.062ZM27.4219 648.594H35.1562L31.2812 637.953L27.4219 648.594ZM56.9219 651.062H47.3906L45.25 657H42.1562L50.8438 634.25H53.4688L62.1719 657H59.0938L56.9219 651.062ZM48.2969 648.594H56.0312L52.1562 637.953L48.2969 648.594ZM79.875 646.859C77.3021 646.12 75.4271 645.214 74.25 644.141C73.0833 643.057 72.5 641.724 72.5 640.141C72.5 638.349 73.2135 636.87 74.6406 635.703C76.0781 634.526 77.9427 633.938 80.2344 633.938C81.7969 633.938 83.1875 634.24 84.4062 634.844C85.6354 635.448 86.5833 636.281 87.25 637.344C87.9271 638.406 88.2656 639.568 88.2656 640.828H85.25C85.25 639.453 84.8125 638.375 83.9375 637.594C83.0625 636.802 81.8281 636.406 80.2344 636.406C78.7552 636.406 77.599 636.734 76.7656 637.391C75.9427 638.036 75.5312 638.938 75.5312 640.094C75.5312 641.021 75.9219 641.807 76.7031 642.453C77.4948 643.089 78.8333 643.672 80.7188 644.203C82.6146 644.734 84.0938 645.323 85.1562 645.969C86.2292 646.604 87.0208 647.349 87.5312 648.203C88.0521 649.057 88.3125 650.062 88.3125 651.219C88.3125 653.062 87.5938 654.542 86.1562 655.656C84.7188 656.76 82.7969 657.312 80.3906 657.312C78.8281 657.312 77.3698 657.016 76.0156 656.422C74.6615 655.818 73.6146 654.995 72.875 653.953C72.1458 652.911 71.7812 651.729 71.7812 650.406H74.7969C74.7969 651.781 75.3021 652.87 76.3125 653.672C77.3333 654.464 78.6927 654.859 80.3906 654.859C81.974 654.859 83.1875 654.536 84.0312 653.891C84.875 653.245 85.2969 652.365 85.2969 651.25C85.2969 650.135 84.9062 649.276 84.125 648.672C83.3438 648.057 81.9271 647.453 79.875 646.859ZM98.5 654.953C99.5312 654.953 100.432 654.641 101.203 654.016C101.974 653.391 102.401 652.609 102.484 651.672H105.219C105.167 652.641 104.833 653.562 104.219 654.438C103.604 655.312 102.781 656.01 101.75 656.531C100.729 657.052 99.6458 657.312 98.5 657.312C96.1979 657.312 94.3646 656.547 93 655.016C91.6458 653.474 90.9688 651.37 90.9688 648.703V648.219C90.9688 646.573 91.2708 645.109 91.875 643.828C92.4792 642.547 93.3438 641.552 94.4688 640.844C95.6042 640.135 96.9427 639.781 98.4844 639.781C100.38 639.781 101.953 640.349 103.203 641.484C104.464 642.62 105.135 644.094 105.219 645.906H102.484C102.401 644.812 101.984 643.917 101.234 643.219C100.495 642.51 99.5781 642.156 98.4844 642.156C97.0156 642.156 95.875 642.688 95.0625 643.75C94.2604 644.802 93.8594 646.328 93.8594 648.328V648.875C93.8594 650.823 94.2604 652.323 95.0625 653.375C95.8646 654.427 97.0104 654.953 98.5 654.953ZM111.359 642.141C112.641 640.568 114.307 639.781 116.359 639.781C119.932 639.781 121.734 641.797 121.766 645.828V657H118.875V645.812C118.865 644.594 118.583 643.693 118.031 643.109C117.49 642.526 116.641 642.234 115.484 642.234C114.547 642.234 113.724 642.484 113.016 642.984C112.307 643.484 111.755 644.141 111.359 644.953V657H108.469V633H111.359V642.141ZM125.328 648.391C125.328 646.734 125.651 645.245 126.297 643.922C126.953 642.599 127.859 641.578 129.016 640.859C130.182 640.141 131.51 639.781 133 639.781C135.302 639.781 137.161 640.578 138.578 642.172C140.005 643.766 140.719 645.885 140.719 648.531V648.734C140.719 650.38 140.401 651.859 139.766 653.172C139.141 654.474 138.24 655.49 137.062 656.219C135.896 656.948 134.552 657.312 133.031 657.312C130.74 657.312 128.88 656.516 127.453 654.922C126.036 653.328 125.328 651.219 125.328 648.594V648.391ZM128.234 648.734C128.234 650.609 128.667 652.115 129.531 653.25C130.406 654.385 131.573 654.953 133.031 654.953C134.5 654.953 135.667 654.38 136.531 653.234C137.396 652.078 137.828 650.464 137.828 648.391C137.828 646.536 137.385 645.036 136.5 643.891C135.625 642.734 134.458 642.156 133 642.156C131.573 642.156 130.422 642.724 129.547 643.859C128.672 644.995 128.234 646.62 128.234 648.734ZM143.578 648.391C143.578 646.734 143.901 645.245 144.547 643.922C145.203 642.599 146.109 641.578 147.266 640.859C148.432 640.141 149.76 639.781 151.25 639.781C153.552 639.781 155.411 640.578 156.828 642.172C158.255 643.766 158.969 645.885 158.969 648.531V648.734C158.969 650.38 158.651 651.859 158.016 653.172C157.391 654.474 156.49 655.49 155.312 656.219C154.146 656.948 152.802 657.312 151.281 657.312C148.99 657.312 147.13 656.516 145.703 654.922C144.286 653.328 143.578 651.219 143.578 648.594V648.391ZM146.484 648.734C146.484 650.609 146.917 652.115 147.781 653.25C148.656 654.385 149.823 654.953 151.281 654.953C152.75 654.953 153.917 654.38 154.781 653.234C155.646 652.078 156.078 650.464 156.078 648.391C156.078 646.536 155.635 645.036 154.75 643.891C153.875 642.734 152.708 642.156 151.25 642.156C149.823 642.156 148.672 642.724 147.797 643.859C146.922 644.995 146.484 646.62 146.484 648.734ZM165.734 657H162.844V633H165.734V657ZM184.328 648.516H176.703V646.156H184.328V648.516ZM201.328 646.422L198.547 649.312V657H195.547V634.25H198.547V645.5L208.656 634.25H212.281L203.328 644.297L212.984 657H209.391L201.328 646.422ZM225.594 657C225.427 656.667 225.292 656.073 225.188 655.219C223.844 656.615 222.24 657.312 220.375 657.312C218.708 657.312 217.339 656.844 216.266 655.906C215.203 654.958 214.672 653.76 214.672 652.312C214.672 650.552 215.339 649.188 216.672 648.219C218.016 647.24 219.901 646.75 222.328 646.75H225.141V645.422C225.141 644.411 224.839 643.609 224.234 643.016C223.63 642.411 222.74 642.109 221.562 642.109C220.531 642.109 219.667 642.37 218.969 642.891C218.271 643.411 217.922 644.042 217.922 644.781H215.016C215.016 643.938 215.312 643.125 215.906 642.344C216.51 641.552 217.323 640.927 218.344 640.469C219.375 640.01 220.505 639.781 221.734 639.781C223.682 639.781 225.208 640.271 226.312 641.25C227.417 642.219 227.99 643.557 228.031 645.266V653.047C228.031 654.599 228.229 655.833 228.625 656.75V657H225.594ZM220.797 654.797C221.703 654.797 222.562 654.562 223.375 654.094C224.188 653.625 224.776 653.016 225.141 652.266V648.797H222.875C219.333 648.797 217.562 649.833 217.562 651.906C217.562 652.812 217.865 653.521 218.469 654.031C219.073 654.542 219.849 654.797 220.797 654.797ZM240.734 642.688C240.297 642.615 239.823 642.578 239.312 642.578C237.417 642.578 236.13 643.385 235.453 645V657H232.562V640.094H235.375L235.422 642.047C236.37 640.536 237.714 639.781 239.453 639.781C240.016 639.781 240.443 639.854 240.734 640V642.688ZM253.219 657C253.052 656.667 252.917 656.073 252.812 655.219C251.469 656.615 249.865 657.312 248 657.312C246.333 657.312 244.964 656.844 243.891 655.906C242.828 654.958 242.297 653.76 242.297 652.312C242.297 650.552 242.964 649.188 244.297 648.219C245.641 647.24 247.526 646.75 249.953 646.75H252.766V645.422C252.766 644.411 252.464 643.609 251.859 643.016C251.255 642.411 250.365 642.109 249.188 642.109C248.156 642.109 247.292 642.37 246.594 642.891C245.896 643.411 245.547 644.042 245.547 644.781H242.641C242.641 643.938 242.938 643.125 243.531 642.344C244.135 641.552 244.948 640.927 245.969 640.469C247 640.01 248.13 639.781 249.359 639.781C251.307 639.781 252.833 640.271 253.938 641.25C255.042 642.219 255.615 643.557 255.656 645.266V653.047C255.656 654.599 255.854 655.833 256.25 656.75V657H253.219ZM248.422 654.797C249.328 654.797 250.188 654.562 251 654.094C251.812 653.625 252.401 653.016 252.766 652.266V648.797H250.5C246.958 648.797 245.188 649.833 245.188 651.906C245.188 652.812 245.49 653.521 246.094 654.031C246.698 654.542 247.474 654.797 248.422 654.797ZM266.969 654.953C268 654.953 268.901 654.641 269.672 654.016C270.443 653.391 270.87 652.609 270.953 651.672H273.688C273.635 652.641 273.302 653.562 272.688 654.438C272.073 655.312 271.25 656.01 270.219 656.531C269.198 657.052 268.115 657.312 266.969 657.312C264.667 657.312 262.833 656.547 261.469 655.016C260.115 653.474 259.438 651.37 259.438 648.703V648.219C259.438 646.573 259.74 645.109 260.344 643.828C260.948 642.547 261.812 641.552 262.938 640.844C264.073 640.135 265.411 639.781 266.953 639.781C268.849 639.781 270.422 640.349 271.672 641.484C272.932 642.62 273.604 644.094 273.688 645.906H270.953C270.87 644.812 270.453 643.917 269.703 643.219C268.964 642.51 268.047 642.156 266.953 642.156C265.484 642.156 264.344 642.688 263.531 643.75C262.729 644.802 262.328 646.328 262.328 648.328V648.875C262.328 650.823 262.729 652.323 263.531 653.375C264.333 654.427 265.479 654.953 266.969 654.953ZM279.828 642.141C281.109 640.568 282.776 639.781 284.828 639.781C288.401 639.781 290.203 641.797 290.234 645.828V657H287.344V645.812C287.333 644.594 287.052 643.693 286.5 643.109C285.958 642.526 285.109 642.234 283.953 642.234C283.016 642.234 282.193 642.484 281.484 642.984C280.776 643.484 280.224 644.141 279.828 644.953V657H276.938V633H279.828V642.141ZM297.703 657H294.812V640.094H297.703V657ZM294.578 635.609C294.578 635.141 294.719 634.745 295 634.422C295.292 634.099 295.719 633.938 296.281 633.938C296.844 633.938 297.271 634.099 297.562 634.422C297.854 634.745 298 635.141 298 635.609C298 636.078 297.854 636.469 297.562 636.781C297.271 637.094 296.844 637.25 296.281 637.25C295.719 637.25 295.292 637.094 295 636.781C294.719 636.469 294.578 636.078 294.578 635.609Z" fill="#7A777B"/>
<path d="M14 126C14.1978 126 14.3911 125.941 14.5556 125.831C14.72 125.722 14.8482 125.565 14.9239 125.383C14.9996 125.2 15.0194 124.999 14.9808 124.805C14.9422 124.611 14.847 124.433 14.7071 124.293C14.5673 124.153 14.3891 124.058 14.1951 124.019C14.0011 123.981 13.8 124 13.6173 124.076C13.4346 124.152 13.2784 124.28 13.1685 124.444C13.0586 124.609 13 124.802 13 125C13 125.265 13.1054 125.52 13.2929 125.707C13.4804 125.895 13.7348 126 14 126ZM19 126C19.1978 126 19.3911 125.941 19.5556 125.831C19.72 125.722 19.8482 125.565 19.9239 125.383C19.9996 125.2 20.0194 124.999 19.9808 124.805C19.9422 124.611 19.847 124.433 19.7071 124.293C19.5673 124.153 19.3891 124.058 19.1951 124.019C19.0011 123.981 18.8 124 18.6173 124.076C18.4346 124.152 18.2784 124.28 18.1685 124.444C18.0586 124.609 18 124.802 18 125C18 125.265 18.1054 125.52 18.2929 125.707C18.4804 125.895 18.7348 126 19 126ZM14 130C14.1978 130 14.3911 129.941 14.5556 129.831C14.72 129.722 14.8482 129.565 14.9239 129.383C14.9996 129.2 15.0194 128.999 14.9808 128.805C14.9422 128.611 14.847 128.433 14.7071 128.293C14.5673 128.153 14.3891 128.058 14.1951 128.019C14.0011 127.981 13.8 128 13.6173 128.076C13.4346 128.152 13.2784 128.28 13.1685 128.444C13.0586 128.609 13 128.802 13 129C13 129.265 13.1054 129.52 13.2929 129.707C13.4804 129.895 13.7348 130 14 130ZM19 130C19.1978 130 19.3911 129.941 19.5556 129.831C19.72 129.722 19.8482 129.565 19.9239 129.383C19.9996 129.2 20.0194 128.999 19.9808 128.805C19.9422 128.611 19.847 128.433 19.7071 128.293C19.5673 128.153 19.3891 128.058 19.1951 128.019C19.0011 127.981 18.8 128 18.6173 128.076C18.4346 128.152 18.2784 128.28 18.1685 128.444C18.0586 128.609 18 128.802 18 129C18 129.265 18.1054 129.52 18.2929 129.707C18.4804 129.895 18.7348 130 19 130ZM9 126C9.19778 126 9.39112 125.941 9.55557 125.831C9.72002 125.722 9.84819 125.565 9.92388 125.383C9.99957 125.2 10.0194 124.999 9.98079 124.805C9.9422 124.611 9.84696 124.433 9.70711 124.293C9.56725 124.153 9.38907 124.058 9.19509 124.019C9.00111 123.981 8.80004 124 8.61732 124.076C8.43459 124.152 8.27841 124.28 8.16853 124.444C8.05865 124.609 8 124.802 8 125C8 125.265 8.10536 125.52 8.29289 125.707C8.48043 125.895 8.73478 126 9 126ZM21 116H20V115C20 114.735 19.8946 114.48 19.7071 114.293C19.5196 114.105 19.2652 114 19 114C18.7348 114 18.4804 114.105 18.2929 114.293C18.1054 114.48 18 114.735 18 115V116H10V115C10 114.735 9.89464 114.48 9.70711 114.293C9.51957 114.105 9.26522 114 9 114C8.73478 114 8.48043 114.105 8.29289 114.293C8.10536 114.48 8 114.735 8 115V116H7C6.20435 116 5.44129 116.316 4.87868 116.879C4.31607 117.441 4 118.204 4 119V131C4 131.796 4.31607 132.559 4.87868 133.121C5.44129 133.684 6.20435 134 7 134H21C21.7956 134 22.5587 133.684 23.1213 133.121C23.6839 132.559 24 131.796 24 131V119C24 118.204 23.6839 117.441 23.1213 116.879C22.5587 116.316 21.7956 116 21 116V116ZM22 131C22 131.265 21.8946 131.52 21.7071 131.707C21.5196 131.895 21.2652 132 21 132H7C6.73478 132 6.48043 131.895 6.29289 131.707C6.10536 131.52 6 131.265 6 131V122H22V131ZM22 120H6V119C6 118.735 6.10536 118.48 6.29289 118.293C6.48043 118.105 6.73478 118 7 118H21C21.2652 118 21.5196 118.105 21.7071 118.293C21.8946 118.48 22 118.735 22 119V120ZM9 130C9.19778 130 9.39112 129.941 9.55557 129.831C9.72002 129.722 9.84819 129.565 9.92388 129.383C9.99957 129.2 10.0194 128.999 9.98079 128.805C9.9422 128.611 9.84696 128.433 9.70711 128.293C9.56725 128.153 9.38907 128.058 9.19509 128.019C9.00111 127.981 8.80004 128 8.61732 128.076C8.43459 128.152 8.27841 128.28 8.16853 128.444C8.05865 128.609 8 128.802 8 129C8 129.265 8.10536 129.52 8.29289 129.707C8.48043 129.895 8.73478 130 9 130Z" fill="#C1C0C4"/>
<path d="M503 411C503.198 411 503.391 410.941 503.556 410.831C503.72 410.722 503.848 410.565 503.924 410.383C504 410.2 504.019 409.999 503.981 409.805C503.942 409.611 503.847 409.433 503.707 409.293C503.567 409.153 503.389 409.058 503.195 409.019C503.001 408.981 502.8 409 502.617 409.076C502.435 409.152 502.278 409.28 502.169 409.444C502.059 409.609 502 409.802 502 410C502 410.265 502.105 410.52 502.293 410.707C502.48 410.895 502.735 411 503 411ZM508 411C508.198 411 508.391 410.941 508.556 410.831C508.72 410.722 508.848 410.565 508.924 410.383C509 410.2 509.019 409.999 508.981 409.805C508.942 409.611 508.847 409.433 508.707 409.293C508.567 409.153 508.389 409.058 508.195 409.019C508.001 408.981 507.8 409 507.617 409.076C507.435 409.152 507.278 409.28 507.169 409.444C507.059 409.609 507 409.802 507 410C507 410.265 507.105 410.52 507.293 410.707C507.48 410.895 507.735 411 508 411ZM503 415C503.198 415 503.391 414.941 503.556 414.831C503.72 414.722 503.848 414.565 503.924 414.383C504 414.2 504.019 413.999 503.981 413.805C503.942 413.611 503.847 413.433 503.707 413.293C503.567 413.153 503.389 413.058 503.195 413.019C503.001 412.981 502.8 413 502.617 413.076C502.435 413.152 502.278 413.28 502.169 413.444C502.059 413.609 502 413.802 502 414C502 414.265 502.105 414.52 502.293 414.707C502.48 414.895 502.735 415 503 415ZM508 415C508.198 415 508.391 414.941 508.556 414.831C508.72 414.722 508.848 414.565 508.924 414.383C509 414.2 509.019 413.999 508.981 413.805C508.942 413.611 508.847 413.433 508.707 413.293C508.567 413.153 508.389 413.058 508.195 413.019C508.001 412.981 507.8 413 507.617 413.076C507.435 413.152 507.278 413.28 507.169 413.444C507.059 413.609 507 413.802 507 414C507 414.265 507.105 414.52 507.293 414.707C507.48 414.895 507.735 415 508 415ZM498 411C498.198 411 498.391 410.941 498.556 410.831C498.72 410.722 498.848 410.565 498.924 410.383C499 410.2 499.019 409.999 498.981 409.805C498.942 409.611 498.847 409.433 498.707 409.293C498.567 409.153 498.389 409.058 498.195 409.019C498.001 408.981 497.8 409 497.617 409.076C497.435 409.152 497.278 409.28 497.169 409.444C497.059 409.609 497 409.802 497 410C497 410.265 497.105 410.52 497.293 410.707C497.48 410.895 497.735 411 498 411ZM510 401H509V400C509 399.735 508.895 399.48 508.707 399.293C508.52 399.105 508.265 399 508 399C507.735 399 507.48 399.105 507.293 399.293C507.105 399.48 507 399.735 507 400V401H499V400C499 399.735 498.895 399.48 498.707 399.293C498.52 399.105 498.265 399 498 399C497.735 399 497.48 399.105 497.293 399.293C497.105 399.48 497 399.735 497 400V401H496C495.204 401 494.441 401.316 493.879 401.879C493.316 402.441 493 403.204 493 404V416C493 416.796 493.316 417.559 493.879 418.121C494.441 418.684 495.204 419 496 419H510C510.796 419 511.559 418.684 512.121 418.121C512.684 417.559 513 416.796 513 416V404C513 403.204 512.684 402.441 512.121 401.879C511.559 401.316 510.796 401 510 401V401ZM511 416C511 416.265 510.895 416.52 510.707 416.707C510.52 416.895 510.265 417 510 417H496C495.735 417 495.48 416.895 495.293 416.707C495.105 416.52 495 416.265 495 416V407H511V416ZM511 405H495V404C495 403.735 495.105 403.48 495.293 403.293C495.48 403.105 495.735 403 496 403H510C510.265 403 510.52 403.105 510.707 403.293C510.895 403.48 511 403.735 511 404V405ZM498 415C498.198 415 498.391 414.941 498.556 414.831C498.72 414.722 498.848 414.565 498.924 414.383C499 414.2 499.019 413.999 498.981 413.805C498.942 413.611 498.847 413.433 498.707 413.293C498.567 413.153 498.389 413.058 498.195 413.019C498.001 412.981 497.8 413 497.617 413.076C497.435 413.152 497.278 413.28 497.169 413.444C497.059 413.609 497 413.802 497 414C497 414.265 497.105 414.52 497.293 414.707C497.48 414.895 497.735 415 498 415Z" fill="#C1C0C4"/>
<path d="M12 697C12.1978 697 12.3911 696.941 12.5556 696.831C12.72 696.722 12.8482 696.565 12.9239 696.383C12.9996 696.2 13.0194 695.999 12.9808 695.805C12.9422 695.611 12.847 695.433 12.7071 695.293C12.5673 695.153 12.3891 695.058 12.1951 695.019C12.0011 694.981 11.8 695 11.6173 695.076C11.4346 695.152 11.2784 695.28 11.1685 695.444C11.0586 695.609 11 695.802 11 696C11 696.265 11.1054 696.52 11.2929 696.707C11.4804 696.895 11.7348 697 12 697ZM17 697C17.1978 697 17.3911 696.941 17.5556 696.831C17.72 696.722 17.8482 696.565 17.9239 696.383C17.9996 696.2 18.0194 695.999 17.9808 695.805C17.9422 695.611 17.847 695.433 17.7071 695.293C17.5673 695.153 17.3891 695.058 17.1951 695.019C17.0011 694.981 16.8 695 16.6173 695.076C16.4346 695.152 16.2784 695.28 16.1685 695.444C16.0586 695.609 16 695.802 16 696C16 696.265 16.1054 696.52 16.2929 696.707C16.4804 696.895 16.7348 697 17 697ZM12 701C12.1978 701 12.3911 700.941 12.5556 700.831C12.72 700.722 12.8482 700.565 12.9239 700.383C12.9996 700.2 13.0194 699.999 12.9808 699.805C12.9422 699.611 12.847 699.433 12.7071 699.293C12.5673 699.153 12.3891 699.058 12.1951 699.019C12.0011 698.981 11.8 699 11.6173 699.076C11.4346 699.152 11.2784 699.28 11.1685 699.444C11.0586 699.609 11 699.802 11 700C11 700.265 11.1054 700.52 11.2929 700.707C11.4804 700.895 11.7348 701 12 701ZM17 701C17.1978 701 17.3911 700.941 17.5556 700.831C17.72 700.722 17.8482 700.565 17.9239 700.383C17.9996 700.2 18.0194 699.999 17.9808 699.805C17.9422 699.611 17.847 699.433 17.7071 699.293C17.5673 699.153 17.3891 699.058 17.1951 699.019C17.0011 698.981 16.8 699 16.6173 699.076C16.4346 699.152 16.2784 699.28 16.1685 699.444C16.0586 699.609 16 699.802 16 700C16 700.265 16.1054 700.52 16.2929 700.707C16.4804 700.895 16.7348 701 17 701ZM7 697C7.19778 697 7.39112 696.941 7.55557 696.831C7.72002 696.722 7.84819 696.565 7.92388 696.383C7.99957 696.2 8.01937 695.999 7.98079 695.805C7.9422 695.611 7.84696 695.433 7.70711 695.293C7.56725 695.153 7.38907 695.058 7.19509 695.019C7.00111 694.981 6.80004 695 6.61732 695.076C6.43459 695.152 6.27841 695.28 6.16853 695.444C6.05865 695.609 6 695.802 6 696C6 696.265 6.10536 696.52 6.29289 696.707C6.48043 696.895 6.73478 697 7 697ZM19 687H18V686C18 685.735 17.8946 685.48 17.7071 685.293C17.5196 685.105 17.2652 685 17 685C16.7348 685 16.4804 685.105 16.2929 685.293C16.1054 685.48 16 685.735 16 686V687H8V686C8 685.735 7.89464 685.48 7.70711 685.293C7.51957 685.105 7.26522 685 7 685C6.73478 685 6.48043 685.105 6.29289 685.293C6.10536 685.48 6 685.735 6 686V687H5C4.20435 687 3.44129 687.316 2.87868 687.879C2.31607 688.441 2 689.204 2 690V702C2 702.796 2.31607 703.559 2.87868 704.121C3.44129 704.684 4.20435 705 5 705H19C19.7956 705 20.5587 704.684 21.1213 704.121C21.6839 703.559 22 702.796 22 702V690C22 689.204 21.6839 688.441 21.1213 687.879C20.5587 687.316 19.7956 687 19 687V687ZM20 702C20 702.265 19.8946 702.52 19.7071 702.707C19.5196 702.895 19.2652 703 19 703H5C4.73478 703 4.48043 702.895 4.29289 702.707C4.10536 702.52 4 702.265 4 702V693H20V702ZM20 691H4V690C4 689.735 4.10536 689.48 4.29289 689.293C4.48043 689.105 4.73478 689 5 689H19C19.2652 689 19.5196 689.105 19.7071 689.293C19.8946 689.48 20 689.735 20 690V691ZM7 701C7.19778 701 7.39112 700.941 7.55557 700.831C7.72002 700.722 7.84819 700.565 7.92388 700.383C7.99957 700.2 8.01937 699.999 7.98079 699.805C7.9422 699.611 7.84696 699.433 7.70711 699.293C7.56725 699.153 7.38907 699.058 7.19509 699.019C7.00111 698.981 6.80004 699 6.61732 699.076C6.43459 699.152 6.27841 699.28 6.16853 699.444C6.05865 699.609 6 699.802 6 700C6 700.265 6.10536 700.52 6.29289 700.707C6.48043 700.895 6.73478 701 7 701Z" fill="#C1C0C4"/>
<path d="M45.498 132H36.1816V130.701L41.1035 125.232C41.8327 124.406 42.334 123.735 42.6074 123.221C42.8874 122.7 43.0273 122.163 43.0273 121.609C43.0273 120.867 42.8027 120.258 42.3535 119.783C41.9043 119.308 41.3053 119.07 40.5566 119.07C39.6582 119.07 38.9583 119.327 38.457 119.842C37.9622 120.35 37.7148 121.059 37.7148 121.971H35.9082C35.9082 120.662 36.3281 119.604 37.168 118.797C38.0143 117.99 39.1439 117.586 40.5566 117.586C41.8783 117.586 42.9232 117.934 43.6914 118.631C44.4596 119.321 44.8438 120.242 44.8438 121.395C44.8438 122.794 43.9518 124.461 42.168 126.395L38.3594 130.525H45.498V132ZM56.3281 125.936C56.3281 128.051 55.9668 129.624 55.2441 130.652C54.5215 131.681 53.3919 132.195 51.8555 132.195C50.3385 132.195 49.2155 131.694 48.4863 130.691C47.7572 129.682 47.3796 128.178 47.3535 126.18V123.768C47.3535 121.678 47.7148 120.125 48.4375 119.109C49.1602 118.094 50.293 117.586 51.8359 117.586C53.3659 117.586 54.4922 118.077 55.2148 119.061C55.9375 120.037 56.3086 121.548 56.3281 123.592V125.936ZM54.5215 123.465C54.5215 121.935 54.3066 120.822 53.877 120.125C53.4473 119.422 52.7669 119.07 51.8359 119.07C50.9115 119.07 50.2376 119.419 49.8145 120.115C49.3913 120.812 49.1732 121.883 49.1602 123.328V126.219C49.1602 127.755 49.3815 128.891 49.8242 129.627C50.2734 130.356 50.9505 130.721 51.8555 130.721C52.7474 130.721 53.4082 130.376 53.8379 129.686C54.2741 128.995 54.502 127.908 54.5215 126.424V123.465ZM64.5801 132H62.7637V119.959L59.1211 121.297V119.656L64.2969 117.713H64.5801V132ZM79.0527 118.797L73.1641 132H71.2695L77.1387 119.266H69.4434V117.781H79.0527V118.797ZM90.0098 126.697H85.2441V125.223H90.0098V126.697ZM105.664 126.834C105.664 128.442 105.296 129.738 104.561 130.721C103.825 131.704 102.829 132.195 101.572 132.195C100.29 132.195 99.2806 131.788 98.5449 130.975V136.062H96.7383V121.434H98.3887L98.4766 122.605C99.2122 121.694 100.234 121.238 101.543 121.238C102.812 121.238 103.815 121.717 104.551 122.674C105.293 123.631 105.664 124.962 105.664 126.668V126.834ZM103.857 126.629C103.857 125.438 103.604 124.497 103.096 123.807C102.588 123.117 101.891 122.771 101.006 122.771C99.9121 122.771 99.0918 123.257 98.5449 124.227V129.275C99.0853 130.239 99.9121 130.721 101.025 130.721C101.891 130.721 102.578 130.379 103.086 129.695C103.6 129.005 103.857 127.983 103.857 126.629ZM113.076 123.055C112.803 123.009 112.507 122.986 112.188 122.986C111.003 122.986 110.199 123.491 109.775 124.5V132H107.969V121.434H109.727L109.756 122.654C110.348 121.71 111.188 121.238 112.275 121.238C112.627 121.238 112.894 121.284 113.076 121.375V123.055ZM118.936 132.195C117.503 132.195 116.338 131.727 115.439 130.789C114.541 129.845 114.092 128.585 114.092 127.01V126.678C114.092 125.63 114.29 124.695 114.688 123.875C115.091 123.048 115.651 122.404 116.367 121.941C117.09 121.473 117.871 121.238 118.711 121.238C120.085 121.238 121.152 121.691 121.914 122.596C122.676 123.501 123.057 124.796 123.057 126.482V127.234H115.898C115.924 128.276 116.227 129.119 116.807 129.764C117.393 130.402 118.135 130.721 119.033 130.721C119.671 130.721 120.212 130.59 120.654 130.33C121.097 130.07 121.484 129.725 121.816 129.295L122.92 130.154C122.035 131.515 120.706 132.195 118.936 132.195ZM118.711 122.723C117.982 122.723 117.37 122.99 116.875 123.523C116.38 124.051 116.074 124.793 115.957 125.75H121.25V125.613C121.198 124.695 120.951 123.986 120.508 123.484C120.065 122.977 119.466 122.723 118.711 122.723ZM131.309 129.197C131.309 128.709 131.123 128.331 130.752 128.064C130.387 127.791 129.746 127.557 128.828 127.361C127.917 127.166 127.191 126.932 126.65 126.658C126.117 126.385 125.719 126.059 125.459 125.682C125.205 125.304 125.078 124.855 125.078 124.334C125.078 123.468 125.443 122.736 126.172 122.137C126.908 121.538 127.845 121.238 128.984 121.238C130.182 121.238 131.152 121.548 131.895 122.166C132.643 122.785 133.018 123.576 133.018 124.539H131.201C131.201 124.044 130.99 123.618 130.566 123.26C130.15 122.902 129.622 122.723 128.984 122.723C128.327 122.723 127.812 122.866 127.441 123.152C127.07 123.439 126.885 123.813 126.885 124.275C126.885 124.712 127.057 125.04 127.402 125.262C127.747 125.483 128.369 125.695 129.268 125.896C130.173 126.098 130.905 126.339 131.465 126.619C132.025 126.899 132.438 127.238 132.705 127.635C132.979 128.025 133.115 128.504 133.115 129.07C133.115 130.014 132.738 130.773 131.982 131.346C131.227 131.912 130.247 132.195 129.043 132.195C128.197 132.195 127.448 132.046 126.797 131.746C126.146 131.447 125.635 131.03 125.264 130.496C124.899 129.956 124.717 129.373 124.717 128.748H126.523C126.556 129.354 126.797 129.835 127.246 130.193C127.702 130.545 128.301 130.721 129.043 130.721C129.727 130.721 130.273 130.584 130.684 130.311C131.1 130.031 131.309 129.66 131.309 129.197ZM139.854 132.195C138.421 132.195 137.256 131.727 136.357 130.789C135.459 129.845 135.01 128.585 135.01 127.01V126.678C135.01 125.63 135.208 124.695 135.605 123.875C136.009 123.048 136.569 122.404 137.285 121.941C138.008 121.473 138.789 121.238 139.629 121.238C141.003 121.238 142.07 121.691 142.832 122.596C143.594 123.501 143.975 124.796 143.975 126.482V127.234H136.816C136.842 128.276 137.145 129.119 137.725 129.764C138.311 130.402 139.053 130.721 139.951 130.721C140.589 130.721 141.13 130.59 141.572 130.33C142.015 130.07 142.402 129.725 142.734 129.295L143.838 130.154C142.952 131.515 141.624 132.195 139.854 132.195ZM139.629 122.723C138.9 122.723 138.288 122.99 137.793 123.523C137.298 124.051 136.992 124.793 136.875 125.75H142.168V125.613C142.116 124.695 141.868 123.986 141.426 123.484C140.983 122.977 140.384 122.723 139.629 122.723ZM147.783 121.434L147.842 122.762C148.649 121.746 149.704 121.238 151.006 121.238C153.239 121.238 154.365 122.498 154.385 125.018V132H152.578V125.008C152.572 124.246 152.396 123.683 152.051 123.318C151.712 122.954 151.182 122.771 150.459 122.771C149.873 122.771 149.359 122.928 148.916 123.24C148.473 123.553 148.128 123.963 147.881 124.471V132H146.074V121.434H147.783ZM159.561 118.875V121.434H161.533V122.83H159.561V129.383C159.561 129.806 159.648 130.125 159.824 130.34C160 130.548 160.299 130.652 160.723 130.652C160.931 130.652 161.217 130.613 161.582 130.535V132C161.107 132.13 160.645 132.195 160.195 132.195C159.388 132.195 158.779 131.951 158.369 131.463C157.959 130.975 157.754 130.281 157.754 129.383V122.83H155.83V121.434H157.754V118.875H159.561Z" fill="#C4C4C4"/>
<path d="M534.498 417H525.182V415.701L530.104 410.232C530.833 409.406 531.334 408.735 531.607 408.221C531.887 407.7 532.027 407.163 532.027 406.609C532.027 405.867 531.803 405.258 531.354 404.783C530.904 404.308 530.305 404.07 529.557 404.07C528.658 404.07 527.958 404.327 527.457 404.842C526.962 405.35 526.715 406.059 526.715 406.971H524.908C524.908 405.662 525.328 404.604 526.168 403.797C527.014 402.99 528.144 402.586 529.557 402.586C530.878 402.586 531.923 402.934 532.691 403.631C533.46 404.321 533.844 405.242 533.844 406.395C533.844 407.794 532.952 409.461 531.168 411.395L527.359 415.525H534.498V417ZM545.328 410.936C545.328 413.051 544.967 414.624 544.244 415.652C543.521 416.681 542.392 417.195 540.855 417.195C539.339 417.195 538.215 416.694 537.486 415.691C536.757 414.682 536.38 413.178 536.354 411.18V408.768C536.354 406.678 536.715 405.125 537.438 404.109C538.16 403.094 539.293 402.586 540.836 402.586C542.366 402.586 543.492 403.077 544.215 404.061C544.938 405.037 545.309 406.548 545.328 408.592V410.936ZM543.521 408.465C543.521 406.935 543.307 405.822 542.877 405.125C542.447 404.422 541.767 404.07 540.836 404.07C539.911 404.07 539.238 404.419 538.814 405.115C538.391 405.812 538.173 406.883 538.16 408.328V411.219C538.16 412.755 538.382 413.891 538.824 414.627C539.273 415.356 539.951 415.721 540.855 415.721C541.747 415.721 542.408 415.376 542.838 414.686C543.274 413.995 543.502 412.908 543.521 411.424V408.465ZM553.58 417H551.764V404.959L548.121 406.297V404.656L553.297 402.713H553.58V417ZM559.703 409.871L560.426 402.781H567.711V404.451H561.959L561.529 408.328C562.226 407.918 563.017 407.713 563.902 407.713C565.198 407.713 566.227 408.143 566.988 409.002C567.75 409.855 568.131 411.01 568.131 412.469C568.131 413.934 567.734 415.089 566.939 415.936C566.152 416.775 565.048 417.195 563.629 417.195C562.372 417.195 561.347 416.847 560.553 416.15C559.758 415.454 559.306 414.49 559.195 413.26H560.904C561.015 414.074 561.305 414.689 561.773 415.105C562.242 415.516 562.861 415.721 563.629 415.721C564.469 415.721 565.126 415.434 565.602 414.861C566.083 414.288 566.324 413.497 566.324 412.488C566.324 411.538 566.064 410.776 565.543 410.203C565.029 409.624 564.342 409.334 563.482 409.334C562.695 409.334 562.076 409.507 561.627 409.852L561.148 410.242L559.703 409.871ZM579.01 411.697H574.244V410.223H579.01V411.697ZM594.869 417H585.553V415.701L590.475 410.232C591.204 409.406 591.705 408.735 591.979 408.221C592.258 407.7 592.398 407.163 592.398 406.609C592.398 405.867 592.174 405.258 591.725 404.783C591.275 404.308 590.676 404.07 589.928 404.07C589.029 404.07 588.329 404.327 587.828 404.842C587.333 405.35 587.086 406.059 587.086 406.971H585.279C585.279 405.662 585.699 404.604 586.539 403.797C587.385 402.99 588.515 402.586 589.928 402.586C591.249 402.586 592.294 402.934 593.062 403.631C593.831 404.321 594.215 405.242 594.215 406.395C594.215 407.794 593.323 409.461 591.539 411.395L587.73 415.525H594.869V417ZM605.699 410.936C605.699 413.051 605.338 414.624 604.615 415.652C603.893 416.681 602.763 417.195 601.227 417.195C599.71 417.195 598.587 416.694 597.857 415.691C597.128 414.682 596.751 413.178 596.725 411.18V408.768C596.725 406.678 597.086 405.125 597.809 404.109C598.531 403.094 599.664 402.586 601.207 402.586C602.737 402.586 603.863 403.077 604.586 404.061C605.309 405.037 605.68 406.548 605.699 408.592V410.936ZM603.893 408.465C603.893 406.935 603.678 405.822 603.248 405.125C602.818 404.422 602.138 404.07 601.207 404.07C600.283 404.07 599.609 404.419 599.186 405.115C598.762 405.812 598.544 406.883 598.531 408.328V411.219C598.531 412.755 598.753 413.891 599.195 414.627C599.645 415.356 600.322 415.721 601.227 415.721C602.118 415.721 602.779 415.376 603.209 414.686C603.645 413.995 603.873 412.908 603.893 411.424V408.465ZM613.951 417H612.135V404.959L608.492 406.297V404.656L613.668 402.713H613.951V417ZM628.424 403.797L622.535 417H620.641L626.51 404.266H618.814V402.781H628.424V403.797Z" fill="#C4C4C4"/>
<path d="M43.498 703H34.1816V701.701L39.1035 696.232C39.8327 695.406 40.334 694.735 40.6074 694.221C40.8874 693.7 41.0273 693.163 41.0273 692.609C41.0273 691.867 40.8027 691.258 40.3535 690.783C39.9043 690.308 39.3053 690.07 38.5566 690.07C37.6582 690.07 36.9583 690.327 36.457 690.842C35.9622 691.35 35.7148 692.059 35.7148 692.971H33.9082C33.9082 691.662 34.3281 690.604 35.168 689.797C36.0143 688.99 37.1439 688.586 38.5566 688.586C39.8783 688.586 40.9232 688.934 41.6914 689.631C42.4596 690.321 42.8438 691.242 42.8438 692.395C42.8438 693.794 41.9518 695.461 40.168 697.395L36.3594 701.525H43.498V703ZM54.3281 696.936C54.3281 699.051 53.9668 700.624 53.2441 701.652C52.5215 702.681 51.3919 703.195 49.8555 703.195C48.3385 703.195 47.2155 702.694 46.4863 701.691C45.7572 700.682 45.3796 699.178 45.3535 697.18V694.768C45.3535 692.678 45.7148 691.125 46.4375 690.109C47.1602 689.094 48.293 688.586 49.8359 688.586C51.3659 688.586 52.4922 689.077 53.2148 690.061C53.9375 691.037 54.3086 692.548 54.3281 694.592V696.936ZM52.5215 694.465C52.5215 692.935 52.3066 691.822 51.877 691.125C51.4473 690.422 50.7669 690.07 49.8359 690.07C48.9115 690.07 48.2376 690.419 47.8145 691.115C47.3913 691.812 47.1732 692.883 47.1602 694.328V697.219C47.1602 698.755 47.3815 699.891 47.8242 700.627C48.2734 701.356 48.9505 701.721 49.8555 701.721C50.7474 701.721 51.4082 701.376 51.8379 700.686C52.2741 699.995 52.502 698.908 52.5215 697.424V694.465ZM62.5801 703H60.7637V690.959L57.1211 692.297V690.656L62.2969 688.713H62.5801V703ZM70.5 695.012H71.8574C72.7103 694.999 73.3809 694.774 73.8691 694.338C74.3574 693.902 74.6016 693.312 74.6016 692.57C74.6016 690.904 73.7715 690.07 72.1113 690.07C71.3301 690.07 70.7051 690.295 70.2363 690.744C69.7741 691.187 69.543 691.776 69.543 692.512H67.7363C67.7363 691.385 68.1465 690.451 68.9668 689.709C69.7936 688.96 70.8418 688.586 72.1113 688.586C73.4525 688.586 74.5039 688.941 75.2656 689.65C76.0273 690.36 76.4082 691.346 76.4082 692.609C76.4082 693.228 76.2064 693.827 75.8027 694.406C75.4056 694.986 74.862 695.419 74.1719 695.705C74.9531 695.952 75.5553 696.363 75.9785 696.936C76.4082 697.508 76.623 698.208 76.623 699.035C76.623 700.311 76.2064 701.324 75.373 702.072C74.5397 702.821 73.4557 703.195 72.1211 703.195C70.7865 703.195 69.6992 702.834 68.8594 702.111C68.026 701.389 67.6094 700.435 67.6094 699.25H69.4258C69.4258 699.999 69.6699 700.598 70.1582 701.047C70.6465 701.496 71.3008 701.721 72.1211 701.721C72.9935 701.721 73.6608 701.493 74.123 701.037C74.5853 700.581 74.8164 699.927 74.8164 699.074C74.8164 698.247 74.5625 697.613 74.0547 697.17C73.5469 696.727 72.8145 696.499 71.8574 696.486H70.5V695.012ZM88.0098 697.697H83.2441V696.223H88.0098V697.697ZM103.869 703H94.5527V701.701L99.4746 696.232C100.204 695.406 100.705 694.735 100.979 694.221C101.258 693.7 101.398 693.163 101.398 692.609C101.398 691.867 101.174 691.258 100.725 690.783C100.275 690.308 99.6764 690.07 98.9277 690.07C98.0293 690.07 97.3294 690.327 96.8281 690.842C96.3333 691.35 96.0859 692.059 96.0859 692.971H94.2793C94.2793 691.662 94.6992 690.604 95.5391 689.797C96.3854 688.99 97.515 688.586 98.9277 688.586C100.249 688.586 101.294 688.934 102.062 689.631C102.831 690.321 103.215 691.242 103.215 692.395C103.215 693.794 102.323 695.461 100.539 697.395L96.7305 701.525H103.869V703ZM114.699 696.936C114.699 699.051 114.338 700.624 113.615 701.652C112.893 702.681 111.763 703.195 110.227 703.195C108.71 703.195 107.587 702.694 106.857 701.691C106.128 700.682 105.751 699.178 105.725 697.18V694.768C105.725 692.678 106.086 691.125 106.809 690.109C107.531 689.094 108.664 688.586 110.207 688.586C111.737 688.586 112.863 689.077 113.586 690.061C114.309 691.037 114.68 692.548 114.699 694.592V696.936ZM112.893 694.465C112.893 692.935 112.678 691.822 112.248 691.125C111.818 690.422 111.138 690.07 110.207 690.07C109.283 690.07 108.609 690.419 108.186 691.115C107.762 691.812 107.544 692.883 107.531 694.328V697.219C107.531 698.755 107.753 699.891 108.195 700.627C108.645 701.356 109.322 701.721 110.227 701.721C111.118 701.721 111.779 701.376 112.209 700.686C112.645 699.995 112.873 698.908 112.893 697.424V694.465ZM122.951 703H121.135V690.959L117.492 692.297V690.656L122.668 688.713H122.951V703ZM129.074 695.871L129.797 688.781H137.082V690.451H131.33L130.9 694.328C131.597 693.918 132.388 693.713 133.273 693.713C134.569 693.713 135.598 694.143 136.359 695.002C137.121 695.855 137.502 697.01 137.502 698.469C137.502 699.934 137.105 701.089 136.311 701.936C135.523 702.775 134.419 703.195 133 703.195C131.743 703.195 130.718 702.847 129.924 702.15C129.13 701.454 128.677 700.49 128.566 699.26H130.275C130.386 700.074 130.676 700.689 131.145 701.105C131.613 701.516 132.232 701.721 133 701.721C133.84 701.721 134.497 701.434 134.973 700.861C135.454 700.288 135.695 699.497 135.695 698.488C135.695 697.538 135.435 696.776 134.914 696.203C134.4 695.624 133.713 695.334 132.854 695.334C132.066 695.334 131.447 695.507 130.998 695.852L130.52 696.242L129.074 695.871Z" fill="#C4C4C4"/>
</svg>
